<svg width="428" height="832" viewBox="0 0 428 832" fill="none" xmlns="http://www.w3.org/2000/svg">
<g clip-path="url(#clip0_74_5499)">
<circle cx="645.5" cy="465.5" r="465.5" fill="#16161A"/>
<g opacity="0.12">
<path d="M278.057 779.062C417.264 779.062 530.114 772.473 530.114 764.346C530.114 756.218 417.264 749.63 278.057 749.63C138.85 749.63 26 756.218 26 764.346C26 772.473 138.85 779.062 278.057 779.062Z" fill="#F5F5F5"/>
<path d="M217.672 504.255H234.377L229.931 552.082L256.347 556.047V559.375H200.707V556.047L212.095 552.082L217.672 504.255Z" fill="#263238"/>
<path d="M282.516 534.61C282.603 535.342 282.533 536.085 282.31 536.788C282.088 537.491 281.719 538.139 281.227 538.689C280.735 539.238 280.132 539.677 279.458 539.976C278.784 540.274 278.053 540.426 277.316 540.421H176.15C174.568 540.389 173.053 539.781 171.887 538.711C170.722 537.641 169.986 536.183 169.819 534.61L163.813 469.87C163.749 469.239 163.793 468.601 163.943 467.985C164.234 466.856 164.896 465.858 165.823 465.151C166.749 464.444 167.887 464.068 169.052 464.085H270.179C271.761 464.117 273.276 464.725 274.442 465.795C275.607 466.865 276.343 468.323 276.51 469.896L282.516 534.61Z" fill="#263238"/>
<path d="M176.15 537.158C175.38 537.132 174.646 536.83 174.08 536.307C173.515 535.784 173.156 535.076 173.069 534.311L167.063 469.571C167.016 469.309 167.016 469.04 167.063 468.778C167.163 468.343 167.414 467.957 167.77 467.688C168.127 467.42 168.567 467.285 169.013 467.309H270.14C270.912 467.338 271.648 467.642 272.216 468.167C272.783 468.691 273.144 469.401 273.234 470.169L279.24 534.909C279.274 535.201 279.248 535.497 279.163 535.779C279.078 536.061 278.936 536.322 278.746 536.547C278.553 536.751 278.319 536.912 278.059 537.017C277.798 537.123 277.518 537.171 277.238 537.158H176.15Z" fill="#125E1C"/>
<path opacity="0.6" d="M176.15 537.158C175.38 537.132 174.646 536.83 174.08 536.307C173.515 535.784 173.156 535.076 173.069 534.311L167.063 469.571C167.016 469.309 167.016 469.04 167.063 468.778C167.163 468.343 167.414 467.957 167.77 467.688C168.127 467.42 168.567 467.285 169.013 467.309H270.14C270.912 467.338 271.648 467.642 272.216 468.167C272.783 468.691 273.144 469.401 273.234 470.169L279.24 534.909C279.274 535.201 279.248 535.497 279.163 535.779C279.078 536.061 278.936 536.322 278.746 536.547C278.553 536.751 278.319 536.912 278.059 537.017C277.798 537.123 277.518 537.171 277.238 537.158H176.15Z" fill="white"/>
<path d="M156.299 767.908H148.343L134.03 568.696H144.599L156.299 767.908Z" fill="#263238"/>
<path opacity="0.4" d="M156.312 767.908H148.343L134.732 578.589L134.03 569.008H144.599L145.171 578.589L156.312 767.908Z" fill="white"/>
<path opacity="0.2" d="M145.171 578.108H134.732L134.03 569.008H144.599L145.171 578.108Z" fill="black"/>
<path d="M344.747 767.908H336.791L335.491 568.696H346.047L344.747 767.908Z" fill="#263238"/>
<path opacity="0.5" d="M346.06 569.008L345.852 601.157L344.76 767.908H336.791L335.699 601.157L335.491 569.008H346.06Z" fill="white"/>
<path opacity="0.2" d="M346.06 569.008L345.852 601.508H335.699L335.491 569.008H346.06Z" fill="black"/>
<path d="M429.299 767.908H421.343L407.03 568.696H417.599L429.299 767.908Z" fill="#263238"/>
<path opacity="0.5" d="M429.312 767.908H421.343L407.732 578.589L407.03 569.008H417.599L418.171 578.589L429.312 767.908Z" fill="white"/>
<path opacity="0.2" d="M418.171 578.108H407.732L407.03 569.008H417.599L418.171 578.108Z" fill="black"/>
<path d="M65.1948 767.908H57.2388L68.9388 568.696H79.5078L65.1948 767.908Z" fill="#263238"/>
<path opacity="0.5" d="M79.5078 569.008L78.8058 578.589L65.1948 767.908H57.2388L68.3668 578.589L68.9388 569.008H79.5078Z" fill="white"/>
<path opacity="0.2" d="M68.9389 569.008H79.5079L78.806 578.108H68.3669L68.9389 569.008Z" fill="black"/>
<path d="M60.5669 563.704H425.971V570.867C425.971 571.611 425.675 572.326 425.148 572.852C424.622 573.379 423.908 573.675 423.163 573.675H63.3749C62.6302 573.675 61.9159 573.379 61.3893 572.852C60.8627 572.326 60.5669 571.611 60.5669 570.867V563.704Z" fill="#125E1C"/>
<path opacity="0.6" d="M60.5669 563.704H425.971V570.867C425.971 571.611 425.675 572.326 425.148 572.852C424.622 573.379 423.908 573.675 423.163 573.675H63.3749C62.6302 573.675 61.9159 573.379 61.3893 572.852C60.8627 572.326 60.5669 571.611 60.5669 570.867V563.704Z" fill="white"/>
<path opacity="0.2" d="M425.971 563.704H60.5669V568.696H425.971V563.704Z" fill="black"/>
<path d="M430.911 565.004H55.6269C54.8821 565.004 54.1679 564.708 53.6413 564.182C53.1147 563.655 52.8188 562.941 52.8188 562.196C52.8188 561.45 53.1143 560.734 53.6405 560.206C54.1667 559.677 54.8809 559.378 55.6269 559.375H430.911C431.657 559.378 432.371 559.677 432.897 560.206C433.423 560.734 433.719 561.45 433.719 562.196C433.719 562.565 433.646 562.93 433.505 563.271C433.364 563.611 433.157 563.921 432.896 564.182C432.636 564.442 432.326 564.649 431.985 564.79C431.645 564.931 431.28 565.004 430.911 565.004Z" fill="#125E1C"/>
<path opacity="0.6" d="M430.911 565.004H55.6269C54.8821 565.004 54.1679 564.708 53.6413 564.182C53.1147 563.655 52.8188 562.941 52.8188 562.196C52.8188 561.45 53.1143 560.734 53.6405 560.206C54.1667 559.677 54.8809 559.378 55.6269 559.375H430.911C431.657 559.378 432.371 559.677 432.897 560.206C433.423 560.734 433.719 561.45 433.719 562.196C433.719 562.565 433.646 562.93 433.505 563.271C433.364 563.611 433.157 563.921 432.896 564.182C432.636 564.442 432.326 564.649 431.985 564.79C431.645 564.931 431.28 565.004 430.911 565.004Z" fill="white"/>
<path d="M234.221 559.375L235.495 554.526H288.21L312.494 556.957L313.417 559.375H234.221Z" fill="#263238"/>
<path opacity="0.4" d="M288.21 554.526V559.375H234.221L235.495 554.526H288.21Z" fill="black"/>
<path d="M105.872 504.255H122.577L105.131 552.082L131.547 556.047V559.375H75.907V556.047L87.308 552.082L105.872 504.255Z" fill="#263238"/>
<path d="M154.778 469.142C154.466 467.539 153.623 466.088 152.384 465.024C151.146 463.96 149.584 463.345 147.953 463.279H57.2259C56.0897 463.232 54.9758 463.603 54.0944 464.322C53.213 465.04 52.6252 466.057 52.4419 467.179C52.3322 467.811 52.3322 468.458 52.4419 469.09L63.9469 534.48C64.2374 536.108 65.0772 537.587 66.3263 538.67C67.5754 539.754 69.1583 540.376 70.8109 540.434H161.538C162.267 540.452 162.99 540.302 163.651 539.996C164.313 539.691 164.895 539.237 165.354 538.671C165.812 538.104 166.135 537.44 166.296 536.729C166.457 536.018 166.452 535.28 166.283 534.571L154.778 469.142Z" fill="#263238"/>
<path opacity="0.2" d="M166.257 534.532C166.426 535.241 166.431 535.979 166.27 536.69C166.108 537.401 165.786 538.065 165.328 538.632C164.869 539.198 164.287 539.652 163.625 539.958C162.963 540.263 162.24 540.413 161.512 540.395H73.4108C71.778 540.333 70.2143 539.72 68.9748 538.655C67.7353 537.59 66.8932 536.137 66.5858 534.532L55.0808 469.142C54.9711 468.51 54.9711 467.863 55.0808 467.231C55.2641 466.109 55.8519 465.092 56.7333 464.374C57.6147 463.655 58.7286 463.284 59.8648 463.331H147.992C149.623 463.398 151.185 464.013 152.423 465.077C153.662 466.141 154.505 467.591 154.817 469.194L166.257 534.532Z" fill="white"/>
<path d="M73.1379 537.119C72.3404 537.075 71.58 536.767 70.9755 536.245C70.3711 535.723 69.9566 535.015 69.7969 534.233L58.3569 468.843C58.3123 468.576 58.3123 468.304 58.3569 468.037C58.4213 467.606 58.6459 467.216 58.9857 466.943C59.3255 466.671 59.7556 466.537 60.1899 466.568H148.317C149.112 466.61 149.87 466.915 150.473 467.435C151.075 467.955 151.487 468.661 151.645 469.441L163.163 534.831C163.221 535.118 163.219 535.415 163.157 535.701C163.094 535.988 162.972 536.258 162.799 536.495C162.62 536.7 162.398 536.863 162.148 536.971C161.899 537.079 161.628 537.129 161.356 537.119H73.1379Z" fill="#125E1C"/>
<path opacity="0.6" d="M73.1379 537.119C72.3404 537.075 71.58 536.767 70.9755 536.245C70.3711 535.723 69.9566 535.015 69.7969 534.233L58.3569 468.843C58.3123 468.576 58.3123 468.304 58.3569 468.037C58.4213 467.606 58.6459 467.216 58.9857 466.943C59.3255 466.671 59.7556 466.537 60.1899 466.568H148.317C149.112 466.61 149.87 466.915 150.473 467.435C151.075 467.955 151.487 468.661 151.645 469.441L163.163 534.831C163.221 535.118 163.219 535.415 163.157 535.701C163.094 535.988 162.972 536.258 162.799 536.495C162.62 536.7 162.398 536.863 162.148 536.971C161.899 537.079 161.628 537.129 161.356 537.119H73.1379Z" fill="#125E1C"/>
<path d="M324.272 504.255H340.977L323.531 552.082L349.947 556.047V559.375H294.307V556.047L305.695 552.082L324.272 504.255Z" fill="#263238"/>
<path d="M382.811 469.87C382.741 468.313 382.076 466.842 380.954 465.761C379.832 464.68 378.337 464.071 376.779 464.059H286.052C284.865 464.05 283.708 464.424 282.752 465.127C281.796 465.83 281.093 466.823 280.748 467.959C280.563 468.574 280.484 469.215 280.514 469.857L283.179 534.584C283.252 536.138 283.918 537.606 285.04 538.684C286.162 539.763 287.655 540.37 289.211 540.382H379.938C380.689 540.386 381.432 540.237 382.124 539.944C382.815 539.651 383.439 539.22 383.957 538.677C384.476 538.134 384.878 537.491 385.139 536.787C385.4 536.083 385.515 535.333 385.476 534.584L382.811 469.87Z" fill="#263238"/>
<path opacity="0.4" d="M385.476 534.597C385.515 535.347 385.4 536.096 385.139 536.8C384.878 537.504 384.476 538.147 383.957 538.69C383.439 539.233 382.815 539.664 382.123 539.957C381.432 540.251 380.689 540.4 379.938 540.395H291.811C290.255 540.383 288.762 539.776 287.64 538.697C286.518 537.619 285.852 536.151 285.779 534.597L283.114 469.87C283.084 469.229 283.163 468.587 283.348 467.972C283.693 466.837 284.396 465.843 285.352 465.141C286.308 464.438 287.465 464.063 288.652 464.072H376.779C378.337 464.084 379.832 464.693 380.954 465.774C382.076 466.855 382.741 468.326 382.811 469.883L385.476 534.597Z" fill="white"/>
<path d="M291.98 537.145C291.221 537.129 290.496 536.827 289.951 536.299C289.406 535.771 289.081 535.056 289.042 534.298L286.377 469.571C286.361 469.3 286.387 469.028 286.455 468.765C286.584 468.332 286.853 467.954 287.22 467.691C287.587 467.427 288.031 467.293 288.483 467.309H376.61C377.37 467.33 378.095 467.636 378.641 468.165C379.188 468.695 379.516 469.41 379.561 470.169L382.226 534.896C382.245 535.194 382.203 535.494 382.102 535.775C382.002 536.057 381.845 536.315 381.641 536.534C381.439 536.733 381.199 536.89 380.936 536.995C380.672 537.1 380.391 537.151 380.107 537.145H291.98Z" fill="#125E1C"/>
<path opacity="0.6" d="M291.98 537.145C291.221 537.129 290.496 536.827 289.951 536.299C289.406 535.771 289.081 535.056 289.042 534.298L286.377 469.571C286.361 469.3 286.387 469.028 286.455 468.765C286.584 468.332 286.853 467.954 287.22 467.691C287.587 467.427 288.031 467.293 288.483 467.309H376.61C377.37 467.33 378.095 467.636 378.641 468.165C379.188 468.695 379.516 469.41 379.561 470.169L382.226 534.896C382.245 535.194 382.203 535.494 382.102 535.775C382.002 536.057 381.845 536.315 381.641 536.534C381.439 536.733 381.199 536.89 380.936 536.995C380.672 537.1 380.391 537.151 380.107 537.145H291.98Z" fill="#125E1C"/>
<path opacity="0.4" d="M291.98 537.145C291.221 537.129 290.496 536.827 289.951 536.299C289.406 535.771 289.081 535.056 289.042 534.298L286.377 469.571C286.361 469.3 286.387 469.028 286.455 468.765C286.584 468.332 286.853 467.954 287.22 467.691C287.587 467.427 288.031 467.293 288.483 467.309H376.61C377.37 467.33 378.095 467.636 378.641 468.165C379.188 468.695 379.516 469.41 379.561 470.169L382.226 534.896C382.245 535.194 382.203 535.494 382.102 535.775C382.002 536.057 381.845 536.315 381.641 536.534C381.439 536.733 381.199 536.89 380.936 536.995C380.672 537.1 380.391 537.151 380.107 537.145H291.98Z" fill="black"/>
<path d="M372.242 474.199H307.541L307.489 472.99H372.19L372.242 474.199Z" fill="white"/>
<path d="M372.398 477.891H314.834L314.782 476.682H372.346L372.398 477.891Z" fill="white"/>
<path d="M372.567 481.583H336.18L336.128 480.387H372.515L372.567 481.583Z" fill="white"/>
<path d="M372.736 485.275H325.494L325.429 484.079H372.671L372.736 485.275Z" fill="white"/>
<path d="M372.892 488.98H341.562L341.51 487.771H372.84L372.892 488.98Z" fill="white"/>
<path d="M373.386 500.251H308.698L308.646 499.042H373.334L373.386 500.251Z" fill="white"/>
<path d="M373.555 503.943H315.991L315.939 502.734H373.503L373.555 503.943Z" fill="white"/>
<path d="M373.724 507.635H337.337L337.285 506.426H373.672L373.724 507.635Z" fill="white"/>
<path d="M373.88 511.34H326.638L326.586 510.131H373.828L373.88 511.34Z" fill="white"/>
<path d="M374.049 515.032H342.706L342.654 513.823H373.997L374.049 515.032Z" fill="white"/>
<path d="M232.752 513.485H176.306L172.991 476.565H229.437L232.752 513.485Z" fill="#125E1C"/>
<path d="M232.752 513.485H176.306L172.991 476.565H229.437L232.752 513.485Z" fill="#125E1C"/>
<path d="M230.516 511.639H178.204L175.682 483.481H227.994L230.516 511.639Z" fill="#263238"/>
<path d="M219.128 488.902H180.427L180.31 487.693H219.011L219.128 488.902Z" fill="white"/>
<path d="M199.329 492.607H180.765L180.648 491.398H199.212L199.329 492.607Z" fill="white"/>
<path d="M204.477 496.312H181.09L180.986 495.103H204.373L204.477 496.312Z" fill="white"/>
<path d="M189.67 500.03H181.428L181.311 498.821H189.553L189.67 500.03Z" fill="white"/>
<path d="M187.096 503.735H181.753L181.649 502.526H186.979L187.096 503.735Z" fill="white"/>
<path d="M270.023 531.945H213.59L210.262 495.025H266.708L270.023 531.945Z" fill="#125E1C"/>
<path d="M270.023 531.945H213.59L210.262 495.025H266.708L270.023 531.945Z" fill="#125E1C"/>
<path d="M267.8 530.099H215.488L212.953 501.941H265.265L267.8 530.099Z" fill="#263238"/>
<path d="M256.399 507.362H217.698L217.594 506.153H256.295L256.399 507.362Z" fill="white"/>
<path d="M236.6 511.067H218.036L217.932 509.858H236.496L236.6 511.067Z" fill="white"/>
<path d="M241.761 514.785H218.374L218.257 513.563H241.644L241.761 514.785Z" fill="white"/>
<path d="M226.941 518.49H218.699L218.595 517.281H226.837L226.941 518.49Z" fill="white"/>
<path d="M224.38 522.195H219.037L218.933 520.986H224.263L224.38 522.195Z" fill="white"/>
<path opacity="0.6" d="M160.199 530.099H72.2669L61.9709 472.73H149.916L160.199 530.099Z" fill="white"/>
<path opacity="0.6" d="M96.512 527.85H73.632L65.156 480.608H88.036L96.512 527.85Z" fill="white"/>
<path opacity="0.6" d="M98.5658 527.85H157.95L149.474 480.608H90.1028L98.5658 527.85Z" fill="white"/>
<g opacity="0.4">
<path d="M85.748 485.431H69.147L68.939 484.235H85.54L85.748 485.431Z" fill="black"/>
<path d="M79.2609 489.006H69.7969L69.5759 487.81H79.0399L79.2609 489.006Z" fill="black"/>
<path d="M83.4209 492.581H70.4339L70.2129 491.372H83.1999L83.4209 492.581Z" fill="black"/>
<path d="M79.3129 496.143H71.0709L70.8499 494.947H79.0918L79.3129 496.143Z" fill="black"/>
<path d="M77.051 499.718H71.708L71.5 498.522H76.83L77.051 499.718Z" fill="black"/>
<path d="M88.946 503.293H72.358L72.137 502.084H88.738L88.946 503.293Z" fill="black"/>
<path d="M82.4589 506.855H72.9949L72.7739 505.659H82.2379L82.4589 506.855Z" fill="black"/>
<path d="M86.6189 510.43H73.6319L73.4109 509.234H86.3979L86.6189 510.43Z" fill="black"/>
<path d="M82.511 513.992H74.269L74.061 512.796H82.303L82.511 513.992Z" fill="black"/>
<path d="M80.249 517.567H74.906L74.698 516.371H80.028L80.249 517.567Z" fill="black"/>
<path d="M83.798 521.142H75.556L75.335 519.933H83.577L83.798 521.142Z" fill="black"/>
<path d="M81.5359 524.704H76.1929L75.9719 523.508H81.3149L81.5359 524.704Z" fill="black"/>
</g>
<g opacity="0.4">
<path d="M137.748 485.431H95.147L94.939 484.235H137.54L137.748 485.431Z" fill="black"/>
<path d="M131.261 489.006H95.7969L95.5759 487.81H131.04L131.261 489.006Z" fill="black"/>
<path d="M135.421 492.581H96.4339L96.2129 491.372H135.2L135.421 492.581Z" fill="black"/>
<path d="M131.313 496.143H97.0709L96.8499 494.947H131.092L131.313 496.143Z" fill="black"/>
<path d="M129.051 499.718H97.708L97.5 498.522H128.83L129.051 499.718Z" fill="black"/>
<path d="M140.946 503.293H98.358L98.137 502.084H140.738L140.946 503.293Z" fill="black"/>
<path d="M134.459 506.855H98.9949L98.7739 505.659H134.238L134.459 506.855Z" fill="black"/>
<path d="M138.619 510.43H99.6319L99.4109 509.234H138.398L138.619 510.43Z" fill="black"/>
<path d="M134.511 513.992H100.269L100.061 512.796H134.303L134.511 513.992Z" fill="black"/>
<path d="M132.249 517.567H100.906L100.698 516.371H132.028L132.249 517.567Z" fill="black"/>
<path d="M135.798 521.142H101.556L101.335 519.933H135.577L135.798 521.142Z" fill="black"/>
<path d="M133.523 524.704H102.193L101.972 523.508H133.315L133.523 524.704Z" fill="black"/>
</g>
<path d="M363.688 379H324.597C322.422 379 320.658 380.764 320.658 382.939V422.03C320.658 424.205 322.422 425.969 324.597 425.969H363.688C365.863 425.969 367.627 424.205 367.627 422.03V382.939C367.627 380.764 365.863 379 363.688 379Z" fill="#125E1C"/>
<path d="M349.557 421.796C349.557 421.796 347.165 435.03 329.68 440.997C329.68 440.997 339.612 431.39 339.612 421.796H349.557Z" fill="#125E1C"/>
<path opacity="0.9" d="M346.788 397.434V394.587L345.319 394.444C345.124 393.515 344.753 392.633 344.227 391.844L345.163 390.7L343.148 388.685L342.017 389.634C341.227 389.11 340.345 388.739 339.417 388.542L339.274 387.073H336.427L336.284 388.542C335.357 388.739 334.475 389.11 333.684 389.634L332.553 388.685L330.538 390.7L331.474 391.844C330.948 392.633 330.577 393.515 330.382 394.444L328.913 394.587V397.434L330.382 397.564C330.575 398.493 330.946 399.376 331.474 400.164L330.538 401.308L332.553 403.323L333.684 402.374C334.475 402.898 335.357 403.268 336.284 403.466L336.427 404.935H339.274L339.417 403.466C340.345 403.268 341.227 402.898 342.017 402.374L343.148 403.323L345.163 401.308L344.227 400.164C344.755 399.376 345.126 398.493 345.319 397.564L346.788 397.434ZM337.818 399.865C337.047 399.865 336.293 399.636 335.651 399.207C335.01 398.779 334.51 398.17 334.215 397.457C333.92 396.745 333.843 395.96 333.993 395.204C334.144 394.447 334.515 393.752 335.06 393.207C335.606 392.662 336.301 392.29 337.057 392.14C337.814 391.989 338.598 392.066 339.311 392.362C340.023 392.657 340.632 393.157 341.061 393.798C341.489 394.439 341.718 395.193 341.718 395.965C341.718 396.992 341.313 397.978 340.59 398.709C339.867 399.439 338.885 399.854 337.857 399.865H337.818Z" fill="white"/>
<path opacity="0.6" d="M358.319 405.468V403.232L357.175 403.128C357.02 402.392 356.729 401.691 356.317 401.061L357.058 400.177L355.472 398.591L354.588 399.332C353.958 398.92 353.257 398.629 352.521 398.474L352.417 397.33H350.181L350.077 398.474C349.344 398.627 348.647 398.918 348.023 399.332L347.126 398.591L345.553 400.177L346.281 401.061C345.869 401.691 345.578 402.392 345.423 403.128L344.279 403.232V405.468L345.423 405.572C345.576 406.305 345.867 407.002 346.281 407.626L345.553 408.523L347.126 410.096L348.023 409.368C348.647 409.782 349.344 410.073 350.077 410.226L350.181 411.37H352.417L352.521 410.226C353.257 410.071 353.958 409.78 354.588 409.368L355.472 410.096L357.058 408.523L356.317 407.626C356.731 407.002 357.022 406.305 357.175 405.572L358.319 405.468ZM351.299 407.366C350.703 407.366 350.119 407.189 349.623 406.858C349.127 406.526 348.741 406.055 348.513 405.504C348.284 404.953 348.225 404.347 348.341 403.762C348.457 403.177 348.745 402.639 349.166 402.217C349.588 401.796 350.126 401.508 350.711 401.392C351.296 401.276 351.902 401.335 352.453 401.564C353.004 401.792 353.475 402.179 353.807 402.674C354.138 403.17 354.315 403.754 354.315 404.35C354.315 405.15 353.997 405.917 353.432 406.483C352.866 407.048 352.099 407.366 351.299 407.366Z" fill="white"/>
<path opacity="0.4" d="M346.788 411.799V409.927L345.813 409.836C345.689 409.219 345.446 408.631 345.098 408.107L345.722 407.353L344.422 406.053L343.668 406.677C343.142 406.329 342.555 406.082 341.939 405.949L341.848 404.987H339.976L339.885 405.949C339.268 406.082 338.682 406.329 338.156 406.677L337.402 406.053L336.102 407.353L336.726 408.107C336.378 408.631 336.135 409.219 336.011 409.836L335.036 409.927V411.799L336.011 411.89C336.14 412.506 336.382 413.092 336.726 413.619L336.102 414.36L337.402 415.66L338.156 415.049C338.683 415.392 339.269 415.635 339.885 415.764L339.976 416.726H341.848L341.939 415.764C342.555 415.635 343.141 415.392 343.668 415.049L344.422 415.66L345.722 414.36L345.098 413.619C345.441 413.092 345.684 412.506 345.813 411.89L346.788 411.799ZM340.886 413.398C340.366 413.411 339.855 413.268 339.418 412.987C338.98 412.706 338.637 412.301 338.432 411.823C338.227 411.346 338.17 410.817 338.269 410.307C338.367 409.797 338.616 409.328 338.983 408.96C339.351 408.593 339.82 408.344 340.33 408.245C340.841 408.147 341.369 408.204 341.846 408.409C342.324 408.614 342.729 408.957 343.01 409.394C343.291 409.832 343.434 410.343 343.421 410.863C343.404 411.53 343.132 412.165 342.66 412.637C342.188 413.109 341.553 413.381 340.886 413.398Z" fill="white"/>
<path d="M335.335 753.894L324.974 752.477L323.544 727.855L333.879 729.285L335.335 753.894Z" fill="#EBB376"/>
<path opacity="0.2" d="M333.879 729.285L323.544 727.868L324.363 741.934L334.698 742.844L333.879 729.285Z" fill="black"/>
<path d="M324.194 751.229L335.894 750.488C335.991 750.477 336.09 750.486 336.184 750.513C336.278 750.541 336.366 750.587 336.442 750.648C336.518 750.71 336.581 750.786 336.628 750.873C336.674 750.959 336.703 751.053 336.713 751.151L337.857 760.381C337.875 760.621 337.845 760.862 337.768 761.091C337.692 761.319 337.571 761.53 337.413 761.712C337.254 761.893 337.062 762.041 336.845 762.147C336.629 762.254 336.394 762.316 336.154 762.331C332.072 762.526 330.109 762.409 324.961 762.695C321.802 762.877 315.575 763.553 311.207 763.124C306.839 762.695 307.385 758.405 309.27 758.197C313.729 757.69 319.67 754.414 322.439 751.918C322.931 751.5 323.549 751.258 324.194 751.229Z" fill="#263238"/>
<path d="M323.947 752.49C323.947 752.308 323.778 749.357 322.647 748.421C322.481 748.298 322.292 748.21 322.09 748.163C321.889 748.116 321.68 748.111 321.477 748.148C321.266 748.168 321.067 748.254 320.908 748.394C320.749 748.534 320.639 748.721 320.593 748.928C320.641 749.822 321.005 750.669 321.62 751.32C320.753 750.803 319.729 750.614 318.734 750.787C318.592 750.856 318.47 750.958 318.377 751.085C318.284 751.212 318.223 751.359 318.201 751.515C318.14 751.747 318.144 751.991 318.213 752.22C318.282 752.449 318.412 752.655 318.591 752.815C319.177 753.188 319.883 753.328 320.567 753.205C321.495 753.129 322.411 752.945 323.297 752.659C323.311 752.666 323.327 752.67 323.342 752.67C323.358 752.67 323.374 752.666 323.388 752.659C323.39 752.633 323.39 752.607 323.388 752.581C323.388 752.581 323.635 752.581 323.648 752.49H323.869H323.947ZM321.074 749.032C321.074 748.889 321.165 748.707 321.503 748.642H321.62C321.718 748.633 321.816 748.646 321.908 748.68C322.001 748.713 322.084 748.767 322.153 748.837C322.816 749.383 322.998 751.034 323.037 752.022L322.829 751.905C321.924 751.184 321.302 750.166 321.074 749.032ZM318.942 752.477C318.834 752.365 318.756 752.228 318.715 752.078C318.674 751.928 318.671 751.77 318.708 751.619C318.716 751.543 318.744 751.47 318.79 751.408C318.836 751.346 318.897 751.298 318.968 751.268C319.631 750.956 321.412 751.723 322.673 752.412C320.84 752.893 319.462 752.919 318.942 752.477Z" fill="#125E1C"/>
<path d="M334.919 609.178L337.441 593.344L395.499 589.834C395.499 589.834 401.674 622.776 396.929 631.551C388.466 647.216 342.836 639.351 329.472 640.846C337.454 673.489 336.674 737.28 336.674 737.28L317.603 738.736C317.603 738.736 302.939 670.005 299.962 637.336C297.96 615.34 316.225 615.834 334.919 609.178Z" fill="#263238"/>
<path opacity="0.2" d="M334.919 609.178L337.441 593.344L395.499 589.834C395.499 589.834 401.674 622.776 396.929 631.551C388.466 647.216 342.836 639.351 329.472 640.846C337.454 673.489 336.674 737.28 336.674 737.28L317.603 738.736C317.603 738.736 302.939 670.005 299.962 637.336C297.96 615.34 316.225 615.834 334.919 609.178Z" fill="black"/>
<path d="M292.448 475.044C292.708 477.488 291.668 479.594 290.121 479.776C288.574 479.958 287.092 478.099 286.819 475.668C286.546 473.237 287.599 471.105 289.146 470.936C290.693 470.767 292.175 472.6 292.448 475.044Z" stroke="#263238" stroke-width="0.5" stroke-miterlimit="10"/>
<path d="M292.487 487.615C292.724 488.167 292.993 488.705 293.293 489.227C294.956 492.203 297.486 494.601 300.547 496.104C301.316 496.493 302.116 496.819 302.939 497.079C305.099 497.799 307.393 498.028 309.654 497.75C311.914 497.471 314.083 496.691 316.004 495.467C317.726 494.347 319.211 492.898 320.372 491.203C325.338 484.131 323.999 477.163 322.673 465.203C322.405 462.41 321.427 459.733 319.833 457.424C318.239 455.116 316.081 453.253 313.565 452.013C311.048 450.773 308.257 450.197 305.455 450.34C302.653 450.482 299.935 451.338 297.557 452.827C286.728 459.522 288.119 477.397 292.487 487.615Z" fill="#E4897B"/>
<path opacity="0.2" d="M300.547 496.104C301.316 496.493 302.116 496.819 302.939 497.079C305.099 497.799 307.393 498.029 309.654 497.75C311.914 497.471 314.083 496.691 316.004 495.467C315.231 494.131 314.292 492.899 313.209 491.801C308.663 491.99 304.267 493.484 300.547 496.104Z" fill="black"/>
<path d="M331.864 499.276C329.823 506.998 316.576 513.199 316.576 513.199C316.576 513.199 307.645 516.033 307.697 512.627C311.701 509 312.507 505.503 311.675 502.227C311.099 500.255 310.131 498.42 308.828 496.832C308.138 495.927 307.4 495.059 306.618 494.232L314.418 473.432C317.239 482.012 323.557 497.092 331.864 499.276Z" fill="#E4897B"/>
<path d="M294.164 461.446C294.164 461.446 290.81 472.743 302.393 480.855C302.393 480.855 307.268 491.255 309.985 492.555C312.702 493.855 318.825 493.062 320.905 492.555C322.985 492.048 333.658 483.156 330.577 462.317C327.496 441.478 309.985 448.017 309.985 448.017L294.164 461.446Z" fill="#263238"/>
<path d="M303.966 475.434C303.928 476.585 303.636 477.714 303.11 478.739C302.584 479.764 301.837 480.66 300.924 481.362C298.688 482.792 296.53 479.659 296.27 476.045C296.062 472.834 296.946 468.128 299.624 468.245C302.302 468.362 304.265 472.132 303.966 475.434Z" fill="#E4897B"/>
<path d="M317.161 447.146C317.161 447.146 304.304 443.623 294.268 448.94C294.268 448.94 296.244 447.64 295.646 446.002C295.048 444.364 290.446 450.292 290.446 450.292C290.446 450.292 291.993 444.65 291.044 444.13C290.095 443.61 284.193 452.45 287.144 456.74C287.144 456.74 281.424 452.84 282.438 455.882C283.452 458.924 283.452 464.189 296.647 461.615C309.842 459.041 317.161 447.146 317.161 447.146Z" fill="#263238"/>
<path d="M286.819 475.668L296.244 471.729" stroke="#263238" stroke-width="0.5" stroke-miterlimit="10"/>
<path d="M306.228 503.878C306.228 503.878 314.925 493.14 328.809 493.283L337.298 500.368L306.228 503.878Z" fill="#125E1C"/>
<path opacity="0.5" d="M306.228 503.878C306.228 503.878 314.925 493.14 328.809 493.283L337.298 500.368L306.228 503.878Z" fill="white"/>
<path d="M253.708 548.403L244.257 544.1C244.257 544.1 236.379 542.631 233.116 543.372C229.853 544.113 222.716 553.889 222.833 555.072C222.95 556.255 235.313 559.18 235.586 559.18C235.859 559.18 241.202 556.164 241.202 556.164L249.925 559.18L253.708 548.403Z" fill="#E4897B"/>
<path d="M338.91 738.216L315.991 739.724L314.028 729.909L339.209 728.739L338.91 738.216Z" fill="#125E1C"/>
<path opacity="0.2" d="M338.91 738.216L315.991 739.724L314.028 729.909L339.209 728.739L338.91 738.216Z" fill="white"/>
<path d="M311.441 753.803L301.015 754.57L294.489 730.793L304.902 730.039L311.441 753.803Z" fill="#EBB376"/>
<path d="M299.611 754.934H299.429C299.429 754.778 298.896 751.853 297.635 751.164C297.473 751.084 297.295 751.042 297.115 751.042C296.935 751.042 296.757 751.084 296.595 751.164C296.396 751.225 296.225 751.353 296.109 751.526C295.993 751.699 295.94 751.906 295.958 752.113C296.21 752.975 296.752 753.723 297.492 754.232C296.543 753.907 295.51 753.935 294.58 754.31C294.454 754.403 294.354 754.528 294.29 754.671C294.226 754.815 294.201 754.973 294.216 755.129C294.199 755.374 294.253 755.62 294.37 755.836C294.488 756.052 294.664 756.231 294.879 756.351C295.531 756.605 296.255 756.605 296.907 756.351C297.811 756.082 298.682 755.716 299.507 755.259H299.598C299.598 755.259 299.598 755.194 299.598 755.168C299.617 755.156 299.634 755.139 299.646 755.119C299.657 755.1 299.664 755.077 299.665 755.054C299.667 755.031 299.662 755.008 299.653 754.987C299.643 754.966 299.629 754.948 299.611 754.934ZM296.478 752.022C296.478 751.879 296.478 751.697 296.829 751.567H296.946C297.04 751.541 297.137 751.535 297.233 751.548C297.33 751.562 297.422 751.595 297.505 751.645C298.259 752.048 298.805 753.634 299.026 754.583L298.792 754.518C297.765 753.881 296.569 752.711 296.478 752.009V752.022ZM295.113 755.844C294.984 755.756 294.88 755.638 294.81 755.499C294.739 755.361 294.705 755.206 294.71 755.051C294.703 754.975 294.715 754.899 294.745 754.828C294.774 754.758 294.82 754.696 294.879 754.648C295.477 754.206 297.375 754.648 298.779 754.999C297.05 755.844 295.724 756.156 295.113 755.831V755.844Z" fill="#125E1C"/>
<path opacity="0.2" d="M304.902 730.039L294.489 730.806L298.22 744.391L308.516 743.13L304.902 730.039Z" fill="black"/>
<path d="M290.953 742.714L309.257 737.319C309.257 737.319 298.298 675.465 287.157 654.015C287.989 653.742 289.094 653.391 290.459 652.988C292.916 652.247 296.179 651.324 300.014 650.258C326.69 642.861 380.757 628.99 380.757 628.99L356.057 605.941C356.057 605.941 257.673 620.943 255.632 646.865C254.735 659.332 290.953 742.714 290.953 742.714Z" fill="#263238"/>
<path d="M311.688 737.722L289.575 743.975L285.61 734.784L309.998 728.388L311.688 737.722Z" fill="#125E1C"/>
<path opacity="0.2" d="M311.688 737.722L289.575 743.975L285.61 734.784L309.998 728.388L311.688 737.722Z" fill="white"/>
<path d="M300.001 753.504L311.285 750.358C311.471 750.296 311.674 750.311 311.85 750.399C312.025 750.486 312.159 750.64 312.221 750.826L315.276 759.614C315.404 760.088 315.338 760.593 315.095 761.019C314.851 761.446 314.449 761.758 313.976 761.889C310.011 762.916 308.074 763.189 303.095 764.567C300.04 765.412 294.086 767.362 289.731 767.856C285.376 768.35 285.012 764.034 286.806 763.449C291.07 762.019 296.179 757.573 298.389 754.557C298.79 754.032 299.359 753.66 300.001 753.504Z" fill="#263238"/>
<path d="M292.734 514.434C292.734 514.434 309.179 496.026 331.136 497.924C353.093 499.822 375.089 516.774 386.022 543.424C396.955 570.074 400.322 610.374 400.322 610.374C400.322 610.374 364.78 620.54 328.666 611.271C321.102 577.522 309.015 544.948 292.734 514.434Z" fill="#125E1C"/>
<path opacity="0.6" d="M292.734 514.434C292.734 514.434 309.179 496.026 331.136 497.924C353.093 499.822 375.089 516.774 386.022 543.424C396.955 570.074 400.322 610.374 400.322 610.374C400.322 610.374 364.78 620.54 328.666 611.271C321.102 577.522 309.015 544.948 292.734 514.434Z" fill="white"/>
<path d="M292.734 514.434C287.196 520.193 271.349 546.596 266.838 547.584C262.327 548.572 255.762 544.503 250.614 546.05C245.466 547.597 240.214 552.29 241.384 555.28C242.554 558.27 254.657 566.278 269.646 566.72C282.477 567.084 309.517 535.143 309.517 535.143C309.517 522.728 292.734 514.434 292.734 514.434Z" fill="#125E1C"/>
<path opacity="0.5" d="M292.734 514.434C287.196 520.193 271.349 546.596 266.838 547.584C262.327 548.572 255.762 544.503 250.614 546.05C245.466 547.597 240.214 552.29 241.384 555.28C242.554 558.27 254.657 566.278 269.646 566.72C282.477 567.084 309.517 535.143 309.517 535.143C309.517 522.728 292.734 514.434 292.734 514.434Z" fill="white"/>
<path d="M398.957 619.162C361.673 626.364 325.104 611.622 325.104 611.622C325.104 611.622 325.013 608.944 324.545 604.771C324.376 603.185 324.142 601.378 323.856 599.428C323.57 597.478 323.258 595.775 322.868 593.812C321.807 588.205 320.227 582.708 318.149 577.393C316.082 572.258 314.47 568.033 313.235 564.562C313.053 564.068 312.884 563.587 312.728 563.119C312.195 561.598 311.74 560.233 311.35 559.024C308.75 550.756 309.049 549.183 309.049 549.183C318.487 550.483 319.189 531.074 306.566 516.618C303.93 513.504 300.216 511.499 296.166 511.002C296.166 511.002 294.866 508.948 308.191 501.447C315.367 497.404 323.401 500.381 329.342 500.381C338.884 500.381 340.314 499.081 340.314 499.081C355.914 499.081 374.738 519.66 386.893 544.139C387.504 545.361 388.102 546.596 388.674 547.844C389.246 549.092 389.844 550.444 390.403 551.744C394.592 561.276 397.462 571.336 398.931 581.644C399.061 582.697 399.191 583.711 399.295 584.699C399.464 586.103 399.607 587.442 399.75 588.729C399.919 590.315 400.062 591.823 400.192 593.24C402.558 618.174 398.957 619.162 398.957 619.162Z" fill="#125E1C"/>
<path opacity="0.3" d="M313.287 564.549L328.64 577.094L322.92 593.799C321.859 588.191 320.279 582.695 318.201 577.38C316.134 572.245 314.522 568.02 313.287 564.549Z" fill="white"/>
<path opacity="0.3" d="M337.298 551.757L359.658 576.938L355.03 598.7L328.64 577.094L337.298 551.757Z" fill="white"/>
<path opacity="0.3" d="M366.093 546.713L386.815 570.347L380.835 600.78L359.658 576.938L366.093 546.713Z" fill="white"/>
<path opacity="0.3" d="M399.373 584.634L386.815 570.334L390.481 551.653C394.67 561.185 397.539 571.245 399.009 581.553C399.139 582.671 399.269 583.685 399.373 584.634Z" fill="white"/>
<g opacity="0.3">
<path d="M388.752 547.779L384.852 564.12L364.598 542.384L358.098 571.127L335.595 544.334L327.249 572.934L312.78 563.054C312.247 561.533 311.792 560.168 311.402 558.959L325.702 568.761L334.412 538.861L356.681 565.42L363.09 536.989L383.357 558.803L386.919 544.074C387.582 545.296 388.18 546.531 388.752 547.779Z" fill="white"/>
</g>
<g opacity="0.3">
<path d="M400.257 593.214L390.663 582.034L384.163 613.962L362.83 590.497L358.176 609.516L331.656 586.714L324.584 604.758C324.415 603.172 324.181 601.365 323.895 599.415L330.577 582.346L356.655 604.771L361.465 585.141L382.642 608.424L389.142 576.314L399.789 588.703C399.997 590.289 400.14 591.797 400.257 593.214Z" fill="white"/>
</g>
<path d="M299.195 635.906H416.091V644.603C416.091 646.327 415.406 647.98 414.187 649.199C412.968 650.418 411.315 651.103 409.591 651.103H305.695C303.971 651.103 302.318 650.418 301.099 649.199C299.88 647.98 299.195 646.327 299.195 644.603V635.906Z" fill="#125E1C"/>
<path opacity="0.2" d="M299.195 635.906H416.091V644.603C416.091 646.327 415.406 647.98 414.187 649.199C412.968 650.418 411.315 651.103 409.591 651.103H305.695C303.971 651.103 302.318 650.418 301.099 649.199C299.88 647.98 299.195 646.327 299.195 644.603V635.906Z" fill="black"/>
<path d="M412.282 737.618L374.829 733.939V681.289H359.957V733.913L322.348 737.618C320.546 737.793 318.873 738.633 317.657 739.974C316.441 741.315 315.768 743.061 315.77 744.872V750.501H418.834V744.872C418.837 743.066 418.167 741.323 416.957 739.982C415.746 738.641 414.08 737.799 412.282 737.618Z" fill="#263238"/>
<path opacity="0.2" d="M412.282 737.618L374.829 733.939V681.289H359.957V733.913L322.348 737.618C320.546 737.793 318.873 738.633 317.657 739.974C316.441 741.315 315.768 743.061 315.77 744.872V750.501H418.834V744.872C418.837 743.066 418.167 741.323 416.957 739.982C415.746 738.641 414.08 737.799 412.282 737.618Z" fill="white"/>
<path d="M319.761 767.18C325.124 767.18 329.472 762.832 329.472 757.469C329.472 752.106 325.124 747.758 319.761 747.758C314.398 747.758 310.05 752.106 310.05 757.469C310.05 762.832 314.398 767.18 319.761 767.18Z" fill="#263238"/>
<path d="M414.895 767.18C420.258 767.18 424.606 762.832 424.606 757.469C424.606 752.106 420.258 747.758 414.895 747.758C409.532 747.758 405.184 752.106 405.184 757.469C405.184 762.832 409.532 767.18 414.895 767.18Z" fill="#263238"/>
<path d="M357.422 645.734H377.377V687.243C377.377 688.667 376.811 690.032 375.804 691.039C374.797 692.046 373.432 692.612 372.008 692.612H362.791C361.367 692.612 360.001 692.046 358.994 691.039C357.988 690.032 357.422 688.667 357.422 687.243V645.734Z" fill="#263238"/>
<path opacity="0.3" d="M357.422 645.734H377.377V687.243C377.377 688.667 376.811 690.032 375.804 691.039C374.797 692.046 373.432 692.612 372.008 692.612H362.791C361.367 692.612 360.001 692.046 358.994 691.039C357.988 690.032 357.422 688.667 357.422 687.243V645.734Z" fill="white"/>
<path d="M345.189 645.734C345.189 645.734 363.857 586.337 366.977 499.679C367.172 494.701 369.287 489.992 372.88 486.541C376.472 483.089 381.261 481.163 386.243 481.167H420.797C425.894 481.163 430.786 483.179 434.401 486.772C438.016 490.366 440.061 495.245 440.089 500.342C440.219 531.828 438.022 596.178 420.264 648.542L345.189 645.734Z" fill="#125E1C"/>
<path opacity="0.2" d="M345.189 645.734C345.189 645.734 363.857 586.337 366.977 499.679C367.172 494.701 369.287 489.992 372.88 486.541C376.472 483.089 381.261 481.163 386.243 481.167H420.797C425.894 481.163 430.786 483.179 434.401 486.772C438.016 490.366 440.061 495.245 440.089 500.342C440.219 531.828 438.022 596.178 420.264 648.542L345.189 645.734Z" fill="black"/>
<path d="M356.98 644.98C356.98 644.98 374.725 581.852 377.663 501.98C377.838 497.386 379.788 493.039 383.102 489.853C386.416 486.668 390.837 484.891 395.434 484.898H427.297C432 484.894 436.513 486.754 439.849 490.07C443.184 493.386 445.07 497.888 445.094 502.591C445.211 531.62 443.183 596.776 426.803 645.032L356.98 644.98Z" fill="#263238"/>
<path opacity="0.3" d="M426.803 644.98H356.98C356.98 644.98 374.725 581.852 377.663 501.98C377.838 497.386 379.788 493.039 383.102 489.853C386.416 486.668 390.837 484.891 395.434 484.898H427.297C432 484.894 436.513 486.754 439.849 490.07C443.184 493.386 445.07 497.888 445.094 502.591C445.211 531.568 443.157 596.724 426.803 644.98Z" fill="white"/>
<path d="M370.656 599.09C370.656 599.09 332.774 591.433 296.205 595.19C259.636 598.947 313.417 646.683 313.417 646.683H320.957C320.957 646.683 292.461 616.38 294.047 608.84C295.633 601.3 367.393 611.245 367.393 611.245L370.656 599.09Z" fill="#263238"/>
<path opacity="0.3" d="M370.656 599.09C370.656 599.09 332.774 591.433 296.205 595.19C259.636 598.947 313.417 646.683 313.417 646.683H320.957C320.957 646.683 292.461 616.38 294.047 608.84C295.633 601.3 367.393 611.245 367.393 611.245L370.656 599.09Z" fill="white"/>
<path opacity="0.2" d="M426.803 644.98H364.78C364.78 644.98 382.525 581.852 385.463 501.98C385.638 497.386 387.588 493.039 390.902 489.853C394.216 486.668 398.637 484.891 403.234 484.898H427.297C432 484.894 436.513 486.754 439.849 490.07C443.184 493.386 445.07 497.888 445.094 502.591C445.211 531.568 443.157 596.724 426.803 644.98Z" fill="black"/>
<path d="M425.451 643.498H297.648C296.205 643.498 295.035 644.668 295.035 646.111V648.477C295.035 649.92 296.205 651.09 297.648 651.09H425.451C426.894 651.09 428.064 649.92 428.064 648.477V646.111C428.064 644.668 426.894 643.498 425.451 643.498Z" fill="#263238"/>
<path opacity="0.6" d="M425.451 643.498H297.648C296.205 643.498 295.035 644.668 295.035 646.111V648.477C295.035 649.92 296.205 651.09 297.648 651.09H425.451C426.894 651.09 428.064 649.92 428.064 648.477V646.111C428.064 644.668 426.894 643.498 425.451 643.498Z" fill="white"/>
</g>
</g>
<defs>
<clipPath id="clip0_74_5499">
<rect width="428" height="832" fill="white"/>
</clipPath>
</defs>
</svg>
