<svg width="512" height="256" viewBox="0 0 512 256" fill="none" xmlns="http://www.w3.org/2000/svg">
<g clip-path="url(#clip0_52708_24204)">
<path d="M512 0H0V256H512V0Z" fill="url(#paint0_linear_52708_24204)"/>
<g filter="url(#filter0_d_52708_24204)">
<path d="M185.158 109.515L198.667 86.1137C199.429 84.8018 198.968 83.1353 197.674 82.373C196.38 81.6106 194.695 82.0538 193.951 83.3658L180.264 107.069C169.822 102.3 158.068 99.6406 145.428 99.6406C132.787 99.6406 121.033 102.3 110.591 107.069L96.9043 83.3658C96.142 82.0538 94.4755 81.6106 93.1636 82.373C91.8517 83.1353 91.4084 84.8018 92.1708 86.1137L105.68 109.515C82.3846 122.138 66.606 145.717 64 173.321H226.855C224.249 145.717 208.471 122.138 185.158 109.515H185.158ZM108.038 150.451C104.262 150.451 101.212 147.384 101.212 143.625C101.212 139.849 104.279 136.8 108.038 136.8C111.814 136.8 114.863 139.867 114.863 143.625C114.881 147.384 111.814 150.451 108.038 150.451ZM182.8 150.451C179.024 150.451 175.974 147.384 175.974 143.625C175.974 139.849 179.041 136.8 182.8 136.8C186.576 136.8 189.625 139.867 189.625 143.625C189.643 147.384 186.576 150.451 182.8 150.451Z" fill="#32DE84"/>
</g>
<g filter="url(#filter1_d_52708_24204)">
<path d="M359.951 94.736C367.831 94.736 374.22 88.3976 374.22 80.5785C374.22 72.7597 367.831 66.4212 359.951 66.4212C352.07 66.4212 345.682 72.7597 345.682 80.5785C345.682 88.3976 352.07 94.736 359.951 94.736Z" fill="#C6DA89"/>
</g>
<g filter="url(#filter2_d_52708_24204)">
<path d="M446.147 73.3495C444.952 74.3507 443.404 74.84 441.845 74.7098C440.286 74.5795 438.842 73.8405 437.832 72.655L434.391 68.6136C432.494 79.1731 427.526 94.5522 414.607 107.823C405.212 117.478 389.172 123.16 382.063 126.8C381.127 127.246 380.235 127.779 379.398 128.389C375.603 131.368 370.56 138.271 369.168 147.333C368.897 149.063 368.773 150.812 368.797 152.563C368.848 156.821 368.924 162.344 372.432 167.423C375.847 172.36 380.393 173.807 382.594 180.116C383.228 182.25 383.563 184.46 383.589 186.684C383.589 192.596 381.222 198.266 377.009 202.446C372.796 206.626 367.081 208.975 361.123 208.975C355.165 208.975 349.45 206.626 345.237 202.446C341.024 198.266 338.657 192.596 338.657 186.684C338.674 184.442 339.012 182.214 339.66 180.066C341.971 173.615 346.854 172.309 350.463 167.055C353.837 162.118 353.972 156.83 354.064 152.88C354.351 140.681 345.024 131.887 341.296 127.478C340.132 126.363 339.357 124.909 339.084 123.327C338.811 121.744 339.055 120.117 339.78 118.682C340.505 117.247 341.673 116.08 343.114 115.35C344.555 114.62 346.193 114.366 347.79 114.625C351.248 115.186 382.206 119.436 403.686 97.3636C411.799 88.8582 417.236 78.1893 419.33 66.664L414.683 70.5548C414.097 71.0965 413.406 71.5143 412.653 71.7828C411.9 72.0514 411.099 72.1651 410.3 72.117C409.501 72.0689 408.72 71.8601 408.005 71.5031C407.289 71.1462 406.655 70.6487 406.14 70.0408C405.624 69.4329 405.239 68.7274 405.007 67.9672C404.775 67.2069 404.702 66.4077 404.791 65.6184C404.88 64.829 405.13 64.0658 405.526 63.3753C405.922 62.6849 406.455 62.0814 407.093 61.6018L424.12 47.3775C425.316 46.3772 426.864 45.8894 428.424 46.0212C429.983 46.1529 431.426 46.8936 432.435 48.0803C432.593 48.2615 432.737 48.4545 432.865 48.6577L446.856 65.0994C447.864 66.2868 448.356 67.8229 448.223 69.3699C448.09 70.9169 447.343 72.3483 446.147 73.3495Z" fill="#73BD8B"/>
</g>
<g filter="url(#filter3_d_52708_24204)">
<path d="M441.738 202.473C437.524 206.652 431.811 209 425.853 209C419.896 209 414.183 206.652 409.969 202.473C408.463 200.921 407.16 199.186 406.09 197.311C403.99 193.42 403.956 190.408 403.4 187.27C402.312 181.145 399.63 176.945 395.81 170.962C393.188 166.859 390.119 163.054 386.66 159.616C381.549 154.594 375.643 150.436 369.177 147.308C370.569 138.246 375.612 131.343 379.407 128.364C380.244 127.754 381.136 127.221 382.072 126.775C386.058 134.782 391.375 142.066 397.8 148.32C401.025 151.475 404.566 154.296 408.367 156.738C413.427 159.926 418.673 163.214 425.976 164.394C429.349 164.946 432.393 164.904 436.391 166.979C438.337 168.063 440.136 169.387 441.746 170.92C443.837 172.991 445.496 175.45 446.627 178.157C447.759 180.865 448.341 183.767 448.34 186.698C448.34 189.629 447.756 192.532 446.623 195.239C445.49 197.945 443.83 200.404 441.738 202.473Z" fill="#A0CC8A"/>
</g>
<g filter="url(#filter4_d_52708_24204)">
<path d="M299.5 144.625H284.625V159.5H280.375V144.625H265.5V140.375H280.375V125.5H284.625V140.375H299.5V144.625Z" fill="#191C1C"/>
</g>
</g>
<defs>
<filter id="filter0_d_52708_24204" x="60" y="82" width="170.855" height="99.3206" filterUnits="userSpaceOnUse" color-interpolation-filters="sRGB">
<feFlood flood-opacity="0" result="BackgroundImageFix"/>
<feColorMatrix in="SourceAlpha" type="matrix" values="0 0 0 0 0 0 0 0 0 0 0 0 0 0 0 0 0 0 127 0" result="hardAlpha"/>
<feOffset dy="4"/>
<feGaussianBlur stdDeviation="2"/>
<feComposite in2="hardAlpha" operator="out"/>
<feColorMatrix type="matrix" values="0 0 0 0 0 0 0 0 0 0 0 0 0 0 0 0 0 0 0.25 0"/>
<feBlend mode="normal" in2="BackgroundImageFix" result="effect1_dropShadow_52708_24204"/>
<feBlend mode="normal" in="SourceGraphic" in2="effect1_dropShadow_52708_24204" result="shape"/>
</filter>
<filter id="filter1_d_52708_24204" x="341.682" y="66.4212" width="36.5381" height="36.3148" filterUnits="userSpaceOnUse" color-interpolation-filters="sRGB">
<feFlood flood-opacity="0" result="BackgroundImageFix"/>
<feColorMatrix in="SourceAlpha" type="matrix" values="0 0 0 0 0 0 0 0 0 0 0 0 0 0 0 0 0 0 127 0" result="hardAlpha"/>
<feOffset dy="4"/>
<feGaussianBlur stdDeviation="2"/>
<feComposite in2="hardAlpha" operator="out"/>
<feColorMatrix type="matrix" values="0 0 0 0 0 0 0 0 0 0 0 0 0 0 0 0 0 0 0.25 0"/>
<feBlend mode="normal" in2="BackgroundImageFix" result="effect1_dropShadow_52708_24204"/>
<feBlend mode="normal" in="SourceGraphic" in2="effect1_dropShadow_52708_24204" result="shape"/>
</filter>
<filter id="filter2_d_52708_24204" x="334.657" y="46" width="117.587" height="170.975" filterUnits="userSpaceOnUse" color-interpolation-filters="sRGB">
<feFlood flood-opacity="0" result="BackgroundImageFix"/>
<feColorMatrix in="SourceAlpha" type="matrix" values="0 0 0 0 0 0 0 0 0 0 0 0 0 0 0 0 0 0 127 0" result="hardAlpha"/>
<feOffset dy="4"/>
<feGaussianBlur stdDeviation="2"/>
<feComposite in2="hardAlpha" operator="out"/>
<feColorMatrix type="matrix" values="0 0 0 0 0 0 0 0 0 0 0 0 0 0 0 0 0 0 0.25 0"/>
<feBlend mode="normal" in2="BackgroundImageFix" result="effect1_dropShadow_52708_24204"/>
<feBlend mode="normal" in="SourceGraphic" in2="effect1_dropShadow_52708_24204" result="shape"/>
</filter>
<filter id="filter3_d_52708_24204" x="365.177" y="126.775" width="87.1626" height="90.2253" filterUnits="userSpaceOnUse" color-interpolation-filters="sRGB">
<feFlood flood-opacity="0" result="BackgroundImageFix"/>
<feColorMatrix in="SourceAlpha" type="matrix" values="0 0 0 0 0 0 0 0 0 0 0 0 0 0 0 0 0 0 127 0" result="hardAlpha"/>
<feOffset dy="4"/>
<feGaussianBlur stdDeviation="2"/>
<feComposite in2="hardAlpha" operator="out"/>
<feColorMatrix type="matrix" values="0 0 0 0 0 0 0 0 0 0 0 0 0 0 0 0 0 0 0.25 0"/>
<feBlend mode="normal" in2="BackgroundImageFix" result="effect1_dropShadow_52708_24204"/>
<feBlend mode="normal" in="SourceGraphic" in2="effect1_dropShadow_52708_24204" result="shape"/>
</filter>
<filter id="filter4_d_52708_24204" x="261.5" y="125.5" width="42" height="42" filterUnits="userSpaceOnUse" color-interpolation-filters="sRGB">
<feFlood flood-opacity="0" result="BackgroundImageFix"/>
<feColorMatrix in="SourceAlpha" type="matrix" values="0 0 0 0 0 0 0 0 0 0 0 0 0 0 0 0 0 0 127 0" result="hardAlpha"/>
<feOffset dy="4"/>
<feGaussianBlur stdDeviation="2"/>
<feComposite in2="hardAlpha" operator="out"/>
<feColorMatrix type="matrix" values="0 0 0 0 0 0 0 0 0 0 0 0 0 0 0 0 0 0 0.25 0"/>
<feBlend mode="normal" in2="BackgroundImageFix" result="effect1_dropShadow_52708_24204"/>
<feBlend mode="normal" in="SourceGraphic" in2="effect1_dropShadow_52708_24204" result="shape"/>
</filter>
<linearGradient id="paint0_linear_52708_24204" x1="0" y1="0" x2="512" y2="260.5" gradientUnits="userSpaceOnUse">
<stop stop-color="#FFF2DA"/>
<stop offset="1" stop-color="#D1FFDB"/>
</linearGradient>
<clipPath id="clip0_52708_24204">
<rect width="512" height="256" fill="white"/>
</clipPath>
</defs>
</svg>
