<svg width="1044" height="693" viewBox="0 0 1044 693" fill="none" xmlns="http://www.w3.org/2000/svg">
<path d="M714.741 238.388C714.741 231.757 720.117 226.381 726.748 226.381H756.55C769.854 226.381 780.639 215.596 780.639 202.292C780.639 188.988 769.854 178.203 756.55 178.203H603.882C597.25 178.203 591.875 172.827 591.875 166.196C591.875 159.565 597.251 154.189 603.882 154.189H668.027C677.046 154.189 684.357 146.878 684.357 137.859C684.357 128.84 677.046 121.529 668.027 121.529H472.122C463.103 121.529 455.792 128.84 455.792 137.859C455.792 146.878 463.103 154.189 472.122 154.189H509.223C515.854 154.189 521.23 159.565 521.23 166.196C521.23 172.827 515.854 178.203 509.223 178.203H314.353C301.049 178.203 290.265 188.988 290.265 202.292C290.265 215.596 301.05 226.381 314.353 226.381H383.831C393.234 226.381 400.857 234.004 400.857 243.407C400.857 252.81 393.234 260.433 383.831 260.433H241.69C230.601 260.433 221.611 269.423 221.611 280.512C221.611 291.601 230.601 300.59 241.69 300.59H495.476C506.565 300.59 515.555 291.6 515.555 280.512C515.555 269.423 506.565 260.433 495.476 260.433H488.53C479.127 260.433 471.504 252.81 471.504 243.407C471.504 234.004 479.127 226.381 488.53 226.381H632.089C638.72 226.381 644.096 231.757 644.096 238.388C644.096 245.02 638.72 250.395 632.089 250.395H627.112C613.251 250.395 602.014 261.632 602.014 275.493C602.014 289.354 613.251 300.591 627.112 300.591H870.299C884.16 300.591 895.397 289.354 895.397 275.493C895.397 261.632 884.16 250.395 870.299 250.395H726.749C720.117 250.395 714.741 245.019 714.741 238.388Z" fill="#A9B3C1"/>
<path d="M331.374 434.97C331.374 422.154 320.985 411.764 308.169 411.764H56.09C43.274 411.764 32.885 422.153 32.885 434.969C32.885 447.785 43.274 458.174 56.09 458.174H104.491C113.969 458.174 121.652 465.857 121.652 475.335C121.652 484.813 113.969 492.496 104.491 492.496H29.572C19.05 492.496 10.52 501.026 10.52 511.548C10.52 522.07 19.05 530.599 29.572 530.599H276.453C286.975 530.599 295.505 522.069 295.505 511.548C295.505 501.026 286.975 492.496 276.453 492.496H252.43C242.952 492.496 235.269 484.813 235.269 475.335C235.269 465.857 242.952 458.174 252.43 458.174H308.169C320.984 458.175 331.374 447.786 331.374 434.97Z" fill="#A9B3C1"/>
<path d="M1033.22 408.91C1033.22 397.012 1023.58 387.367 1011.68 387.367H786.784C774.886 387.367 765.241 397.012 765.241 408.91C765.241 420.808 774.886 430.453 786.784 430.453H838.713C847.171 430.453 854.028 437.31 854.028 445.768C854.028 454.226 847.171 461.083 838.713 461.083H734.254C721.825 461.083 711.749 471.159 711.749 483.588C711.749 496.017 721.825 506.093 734.254 506.093H979.496C991.925 506.093 1002 496.017 1002 483.588V481.789C1002 470.353 992.73 461.082 981.294 461.082C972.836 461.082 965.979 454.225 965.979 445.767C965.979 437.309 972.836 430.452 981.294 430.452H1011.68C1023.58 430.454 1033.22 420.808 1033.22 408.91Z" fill="#A9B3C1"/>
<path d="M999.488 692.781H44.252C24.874 692.781 9.16504 677.072 9.16504 657.694V618.613H1034.57V657.694C1034.57 677.072 1018.87 692.781 999.488 692.781Z" fill="#33465C"/>
<path d="M432.727 81.6699C433.857 86.8749 435.897 91.7959 438.793 96.2959C439.96 98.1099 439.704 100.491 438.18 102.016L429.272 110.924L437.644 119.296L446.552 110.388C448.076 108.864 450.459 108.608 452.272 109.775C456.773 112.67 461.694 114.711 466.898 115.841C469.005 116.299 470.509 118.163 470.509 120.32V132.909H482.349V120.32C482.349 118.163 483.852 116.299 485.96 115.841C491.165 114.711 496.085 112.671 500.586 109.775C502.401 108.608 504.781 108.864 506.306 110.388L515.214 119.296L523.586 110.924L514.678 102.016C513.153 100.491 512.898 98.1089 514.065 96.2959C516.96 91.7949 519.001 86.8739 520.131 81.6699C520.589 79.5629 522.453 78.0589 524.61 78.0589H537.2V66.2189H524.61C522.453 66.2189 520.589 64.7159 520.131 62.6079C519.001 57.4029 516.961 52.4819 514.065 47.9809C512.898 46.1669 513.154 43.7859 514.679 42.2609L523.586 33.3539L515.214 24.9819L506.306 33.8899C504.781 35.4149 502.399 35.6719 500.586 34.5029C496.085 31.6079 491.164 29.5669 485.96 28.4369C483.852 27.9789 482.349 26.1149 482.349 23.9579V11.3679H470.509V23.9579C470.509 26.1149 469.006 27.9789 466.898 28.4369C461.693 29.5669 456.772 31.6069 452.272 34.5029C450.459 35.6719 448.076 35.4139 446.552 33.8899L437.644 24.9819L429.272 33.3539L438.18 42.2619C439.705 43.7869 439.96 46.1689 438.793 47.9819C435.898 52.4829 433.857 57.4039 432.727 62.6079C432.269 64.7149 430.405 66.2189 428.248 66.2189H415.658V78.0589H428.248C430.405 78.0589 432.269 79.5619 432.727 81.6699ZM490.537 108.731C486.67 108.731 486.676 102.731 490.537 102.731C494.404 102.731 494.397 108.731 490.537 108.731ZM473.537 34.7309C477.404 34.7309 477.398 40.7309 473.537 40.7309C469.67 40.7309 469.676 34.7309 473.537 34.7309ZM476.428 44.9779C491.405 44.9779 503.589 57.1619 503.589 72.1389C503.589 87.1159 491.405 99.2999 476.428 99.2999C461.451 99.2999 449.267 87.1159 449.267 72.1389C449.267 57.1619 461.452 44.9779 476.428 44.9779ZM438.697 62.9509C442.163 52.6529 448.757 44.1529 457.887 38.2569C461.143 36.1539 464.148 41.3499 460.915 43.4379C453.139 48.4599 447.436 55.7709 444.482 64.5469C443.255 68.1919 437.462 66.6189 438.697 62.9509Z" fill="#60718D"/>
<path d="M443.576 297.825V288.026H452.742V290.714C468.508 293.014 530.398 301.078 590.997 295.893V288.026H600.163V297.826C601.75 296.825 603.519 296.038 605.448 295.693C606.693 295.471 608.246 295.396 609.968 295.738C617.997 289.881 620.072 277.194 620.605 270.754C610.722 269.036 606.152 265.386 605.606 264.924C604.601 264.074 604.01 262.832 603.985 261.516C603.958 260.2 604.5 258.936 605.47 258.046C609.786 254.09 612.647 246.038 614.284 239.496C602.256 242.872 589.401 240.849 588.733 240.741C586.904 240.442 585.434 239.072 585.01 237.267C584.585 235.463 585.289 233.581 586.794 232.498C590.878 229.557 593.447 221.138 594.708 213.619C572.274 222.999 542.342 227.91 540.936 228.138C538.977 228.454 537.069 227.491 536.152 225.754C535.235 224.016 535.527 221.885 536.879 220.459C543.671 213.3 543.644 203.939 542.393 197.275C522.798 220.879 482.541 235.643 480.655 236.325C479.15 236.869 477.468 236.588 476.221 235.584C474.974 234.579 474.342 232.997 474.554 231.409C475.103 227.293 473.724 222.485 471.506 218.232C468.865 223.914 465.026 229.061 461.592 233.288C456.224 239.897 450.656 247.109 446.307 255.06C439.071 268.288 437.618 282.673 437.595 295.589C437.836 295.618 438.072 295.651 438.294 295.691C440.221 296.038 441.989 296.824 443.576 297.825ZM565.981 238.128C569.673 238.128 569.667 243.857 565.981 243.857C562.289 243.857 562.295 238.128 565.981 238.128ZM537.051 272.501C540.743 272.501 540.737 278.23 537.051 278.23C533.359 278.23 533.365 272.501 537.051 272.501ZM527.312 273.36C531.004 273.36 530.998 279.089 527.312 279.089C523.62 279.089 523.626 273.36 527.312 273.36ZM520.37 229.565C525.526 229.565 525.518 237.565 520.37 237.565C515.214 237.565 515.222 229.565 520.37 229.565ZM512.87 248.065C518.026 248.065 518.018 256.065 512.87 256.065C507.714 256.065 507.722 248.065 512.87 248.065ZM496.87 240.065C502.026 240.065 502.018 248.065 496.87 248.065C491.714 248.065 491.722 240.065 496.87 240.065ZM476.496 273.002C489.82 275.107 503.242 275.719 516.707 274.964C520.397 274.757 520.373 280.487 516.707 280.693C502.715 281.478 488.812 280.713 474.973 278.527C471.336 277.951 472.889 272.432 476.496 273.002ZM450.948 267.485C452.384 262.085 455.158 257.25 459.063 253.258C462.67 249.57 468.322 255.231 464.72 258.915C461.752 261.949 459.752 265.513 458.662 269.612C457.338 274.591 449.624 272.466 450.948 267.485Z" fill="#996B53"/>
<path d="M479.607 576.414L487.098 555.504H465.827C468.14 562.912 466.548 570.621 462.221 576.414H479.607Z" fill="#12B57B"/>
<path d="M569.399 591.114H660.507V585.58H567.417L569.399 591.114Z" fill="#60718D"/>
<path d="M600.163 321.548V327.497H604.022C605.798 326.619 610.541 320.306 611.705 313.169C612.033 311.157 612.275 307.526 610.216 305.811C608.765 304.603 607.775 304.589 607.074 304.712C604.514 305.163 601.658 308.42 600.164 310.601V317.443C601.222 316.622 602.141 315.639 602.857 314.441C603.993 312.543 606.964 314.273 605.825 316.176C604.46 318.457 602.515 320.33 600.163 321.548Z" fill="#BCA877"/>
<path d="M605.717 576.414C602.343 572.457 600.386 567.526 600.176 562.25L600.031 555.504H556.642L564.133 576.414H605.717Z" fill="#12B57B"/>
<path d="M364.203 541.065C384.487 541.065 404.771 541.065 425.055 541.065C495.882 541.065 566.709 541.065 637.537 541.065C640.672 541.065 641.886 544.019 641.208 546.338H686.478C691.953 546.338 696.407 541.884 696.407 536.408V346.594C696.407 341.118 691.953 336.664 686.478 336.664H357.262C351.787 336.664 347.332 341.118 347.332 346.594V536.408C347.332 541.884 351.787 546.338 357.262 546.338H360.531C359.855 544.019 361.073 541.065 364.203 541.065ZM670.203 436.731C674.07 436.731 674.064 442.731 670.203 442.731C666.336 442.731 666.343 436.731 670.203 436.731ZM672.728 521.895C668.297 521.895 668.305 515.02 672.728 515.02C677.159 515.02 677.152 521.895 672.728 521.895ZM649.336 350.985H673.397C676.403 350.985 678.839 353.422 678.839 356.427C678.839 359.432 676.402 361.869 673.397 361.869H649.336C646.33 361.869 643.894 359.432 643.894 356.427C643.894 353.422 646.33 350.985 649.336 350.985ZM612.203 439.398C624.425 439.398 636.647 439.398 648.87 439.398C652.737 439.398 652.731 445.398 648.87 445.398C636.648 445.398 624.426 445.398 612.203 445.398C608.336 445.398 608.343 439.398 612.203 439.398ZM574.193 515.784C602.455 515.784 630.717 515.784 658.979 515.784C663.41 515.784 663.402 522.659 658.979 522.659C630.717 522.659 602.455 522.659 574.193 522.659C569.762 522.658 569.769 515.784 574.193 515.784ZM528.87 357.731C534.026 357.731 534.018 365.731 528.87 365.731C523.714 365.731 523.722 357.731 528.87 357.731ZM514.203 357.731C519.359 357.731 519.351 365.731 514.203 365.731C509.047 365.731 509.056 357.731 514.203 357.731ZM521.87 408.655C539.981 408.655 554.716 423.39 554.716 441.5C554.716 459.611 539.981 474.346 521.87 474.346C503.759 474.346 489.025 459.611 489.025 441.5C489.025 423.39 503.759 408.655 521.87 408.655ZM407.537 357.731C434.648 357.731 461.759 357.731 488.87 357.731C494.026 357.731 494.018 365.731 488.87 365.731C461.759 365.731 434.648 365.731 407.537 365.731C402.38 365.731 402.389 357.731 407.537 357.731ZM368.72 356.905C373.151 356.905 373.143 363.78 368.72 363.78C364.289 363.78 364.296 356.905 368.72 356.905ZM368.72 374.473C373.151 374.473 373.143 381.348 368.72 381.348C364.289 381.348 364.296 374.473 368.72 374.473ZM368.72 392.042C373.151 392.042 373.143 398.917 368.72 398.917C364.289 398.916 364.296 392.042 368.72 392.042ZM365.282 418.394C365.282 413.963 372.157 413.971 372.157 418.394C372.157 450.221 372.157 482.047 372.157 513.874C372.157 518.305 365.282 518.297 365.282 513.874C365.282 482.048 365.282 450.221 365.282 418.394Z" fill="#A9B3C1"/>
<path d="M745.394 472.818H745.328V472.88C745.349 472.858 745.372 472.838 745.394 472.818Z" fill="#AE6344"/>
<path d="M745.328 477.252V554.549C753.094 554.549 760.859 554.549 768.625 554.549C771.579 554.549 771.574 559.132 768.625 559.132C760.859 559.132 753.094 559.132 745.328 559.132V569.826H807.199V484.848C797.333 484.848 787.466 484.848 777.6 484.848C774.646 484.848 774.651 480.265 777.6 480.265C787.466 480.265 797.333 480.265 807.199 480.265V478.065C787.256 478.065 767.313 478.065 747.37 478.065C746.482 478.065 745.808 477.74 745.328 477.252ZM780.273 559.132C777.319 559.132 777.324 554.549 780.273 554.549C783.227 554.549 783.222 559.132 780.273 559.132ZM790.585 559.132C787.631 559.132 787.636 554.549 790.585 554.549C793.539 554.549 793.534 559.132 790.585 559.132ZM768.243 505.521C778 499.886 789.536 501.537 793.958 509.195C798.381 516.854 794.041 527.669 784.284 533.303C780.373 535.561 776.176 536.649 772.267 536.649C766.422 536.649 761.218 534.219 758.568 529.629C754.146 521.969 758.486 511.155 768.243 505.521Z" fill="#AE6344"/>
<path d="M521.87 465.18C534.927 465.18 545.549 454.557 545.549 441.501C545.549 428.444 534.926 417.822 521.87 417.822C508.813 417.822 498.191 428.445 498.191 441.501C498.191 454.557 508.813 465.18 521.87 465.18Z" fill="#E3E2D5"/>
<path d="M548.275 107.352L555.699 108.684C557.556 109.017 558.93 110.6 558.999 112.486C559.124 115.956 559.867 119.348 561.208 122.57C561.933 124.312 561.345 126.325 559.796 127.402L553.599 131.713L557.09 136.729L563.285 132.418C564.836 131.339 566.926 131.489 568.307 132.773C570.863 135.15 573.784 137.026 576.993 138.35C578.737 139.069 579.743 140.908 579.411 142.765L578.078 150.189L584.093 151.268L585.424 143.844C585.757 141.987 587.341 140.613 589.227 140.545C592.696 140.42 596.088 139.676 599.309 138.336C601.048 137.613 603.063 138.198 604.142 139.748L608.452 145.944L613.468 142.454L609.158 136.258C608.08 134.709 608.228 132.618 609.514 131.236C611.889 128.683 613.765 125.76 615.09 122.549C615.811 120.805 617.646 119.8 619.505 120.132L626.929 121.463L628.008 115.448L620.585 114.116C618.728 113.783 617.354 112.2 617.285 110.314C617.16 106.844 616.417 103.452 615.076 100.23C614.351 98.488 614.939 96.476 616.488 95.398L622.683 91.087L619.193 86.071L612.998 90.382C611.447 91.46 609.357 91.311 607.976 90.027C605.42 87.65 602.498 85.774 599.29 84.451C597.544 83.731 596.537 81.893 596.871 80.035L598.204 72.611L592.19 71.532L590.857 78.956C590.524 80.813 588.94 82.187 587.054 82.255C583.587 82.38 580.194 83.124 576.973 84.464C575.233 85.188 573.219 84.602 572.14 83.052L567.829 76.856L562.813 80.346L567.124 86.542C568.202 88.091 568.054 90.182 566.768 91.564C564.391 94.119 562.515 97.042 561.191 100.25C560.472 101.995 558.638 103.006 556.776 102.668L549.353 101.336L548.275 107.352ZM608.745 93.065C612.612 93.065 612.606 99.065 608.745 99.065C604.878 99.065 604.884 93.065 608.745 93.065ZM569.244 108.01C571.114 97.59 581.117 90.636 591.533 92.503C596.58 93.408 600.973 96.225 603.903 100.435C606.831 104.644 607.946 109.743 607.04 114.791C605.375 124.07 597.265 130.602 588.151 130.602C587.03 130.602 585.893 130.503 584.752 130.298C579.705 129.392 575.312 126.575 572.382 122.366C569.453 118.155 568.339 113.057 569.244 108.01Z" fill="#445D7B"/>
<path d="M590.997 327.497V305.087C576.742 306.28 562.429 306.764 548.661 306.764C504.796 306.764 466.423 301.924 452.742 299.974V327.498H479.095V324.061C479.095 320.897 481.66 318.332 484.824 318.332C487.988 318.332 490.553 320.897 490.553 324.061V327.498H553.188V324.061C553.188 320.897 555.753 318.332 558.917 318.332C562.081 318.332 564.646 320.897 564.646 324.061V327.498H590.997V327.497Z" fill="#F8DB94"/>
<path d="M439.718 327.497H443.576V320.322C441.708 319.02 439.98 317.526 438.457 315.814C436.99 314.165 439.414 311.727 440.888 313.383C441.727 314.327 442.634 315.176 443.577 315.978V310.602C442.083 308.421 439.227 305.163 436.668 304.712C435.968 304.589 434.976 304.602 433.527 305.811C431.467 307.527 431.709 311.158 432.037 313.17C433.199 320.306 437.942 326.619 439.718 327.497Z" fill="#BCA877"/>
<path d="M609.199 555.504L609.338 561.969C609.486 565.659 611.093 569.15 613.864 571.712C616.634 574.275 620.252 575.602 624.001 575.454C631.768 575.154 637.844 568.612 637.583 560.853L637.19 555.503H609.199V555.504Z" fill="#F8DB94"/>
<path d="M948.666 591.114V578.992H928.87C928.87 583.033 928.87 587.074 928.87 591.114H948.666Z" fill="#00A99D"/>
<path d="M1011.87 491.222H991.059V515.52H1011.87C1011.87 507.421 1011.87 499.322 1011.87 491.222Z" fill="#F4BB3A"/>
<path d="M891.378 488.065V591.114H915.439V488.058C915.415 488.058 915.395 488.065 915.371 488.065C907.372 488.065 899.375 488.065 891.378 488.065ZM909.71 558.654C909.71 562.134 906.889 564.956 903.408 564.956C899.927 564.956 897.106 562.135 897.106 558.654V514.829C897.106 511.349 899.927 508.527 903.408 508.527C906.889 508.527 909.71 511.348 909.71 514.829V558.654Z" fill="#39B54A"/>
<path d="M780.846 527.35C787.21 523.676 790.489 516.935 788.005 512.633C786.632 510.255 783.733 509.029 780.341 509.029C777.595 509.029 774.527 509.831 771.681 511.475C765.317 515.149 762.038 521.89 764.522 526.192C767.005 530.494 774.483 531.024 780.846 527.35ZM770.749 522.212C771.123 522.204 771.644 522.109 772.228 521.861C772.812 521.606 773.469 521.196 774.105 520.633C774.729 520.083 775.404 519.311 776.199 518.454C777.001 517.595 777.888 516.733 778.914 516.079C779.941 515.431 781.014 515.072 781.958 514.98C782.903 514.88 783.685 515.049 784.168 515.247C784.655 515.45 784.878 515.627 784.878 515.627C784.878 515.627 784.573 515.627 784.095 515.719C783.616 515.809 782.99 516.046 782.37 516.451C781.746 516.852 781.115 517.429 780.515 518.102C779.919 518.773 779.289 519.62 778.473 520.497C777.653 521.377 776.698 522.196 775.602 522.733C774.52 523.261 773.421 523.434 772.534 523.357C771.638 523.277 770.993 522.958 770.638 522.676C770.458 522.532 770.337 522.414 770.263 522.321C770.191 522.234 770.152 522.187 770.152 522.187C770.152 522.187 770.373 522.224 770.749 522.212Z" fill="#7F2E19"/>
<path d="M958.87 466.565C958.481 466.565 958.142 466.491 957.832 466.382V591.114H981.893V466.386C981.586 466.492 981.253 466.565 980.87 466.565C973.537 466.565 966.203 466.565 958.87 466.565ZM975.591 561.994H963.847V516.926H975.591V561.994ZM975.591 506.425H963.847V486.088H975.591V506.425Z" fill="#999999"/>
<path d="M1011.87 457.065C1011.87 457.031 1011.88 457.002 1011.88 456.968H993.207C992.022 456.968 991.059 457.931 991.059 459.116V464.845V482.056H1011.87C1011.87 473.726 1011.87 465.395 1011.87 457.065ZM1007.96 469.285C1006.72 469.34 1005.67 468.192 1005.67 466.993C1005.67 466.038 1005.67 465.083 1005.67 464.129C1005.67 462.844 1006.72 461.893 1007.96 461.837C1009.2 461.782 1010.25 462.93 1010.25 464.129C1010.25 465.084 1010.25 466.039 1010.25 466.993C1010.25 468.278 1009.2 469.23 1007.96 469.285Z" fill="#666666"/>
<path d="M997.36 565.052C997.36 562.098 1001.94 562.103 1001.94 565.052C1001.94 573.739 1001.94 582.427 1001.94 591.114H1011.87C1011.87 568.972 1011.87 546.829 1011.87 524.687H991.059V591.114H997.361C997.36 582.427 997.36 573.739 997.36 565.052ZM999.27 550.921C1002.22 550.921 1002.22 555.504 999.27 555.504C996.316 555.504 996.321 550.921 999.27 550.921Z" fill="#666666"/>
<path d="M928.87 436.065C928.87 480.652 928.87 525.239 928.87 569.826H948.666V464.846V436.584C948.666 435.399 947.703 434.436 946.518 434.436H928.397C928.686 434.869 928.87 435.406 928.87 436.065ZM937.399 448.184C937.399 445.23 941.982 445.235 941.982 448.184C941.982 461.551 941.982 474.918 941.982 488.286C941.982 491.24 937.399 491.235 937.399 488.286C937.399 474.918 937.399 461.551 937.399 448.184ZM939.308 496.306C942.262 496.306 942.257 500.889 939.308 500.889C936.355 500.889 936.36 496.306 939.308 496.306ZM939.308 505.854C942.262 505.854 942.257 510.437 939.308 510.437C936.355 510.437 936.36 505.854 939.308 505.854Z" fill="#808080"/>
<path d="M141.764 245.002H339.408C343.988 245.002 347.715 241.275 347.715 236.695V116.964C347.715 112.384 343.988 108.657 339.408 108.657H141.764C137.184 108.657 133.457 112.384 133.457 116.964V236.696C133.457 241.276 137.183 245.002 141.764 245.002ZM140.618 121.167C140.618 117.85 143.316 115.152 146.633 115.152H334.538C337.855 115.152 340.553 117.85 340.553 121.167V232.493C340.553 235.81 337.855 238.508 334.538 238.508H146.633C143.316 238.508 140.618 235.81 140.618 232.493V121.167Z" fill="#7989A3"/>
<path d="M862.87 458.065C862.87 471.64 862.87 485.214 862.87 498.789H882.211V484.705V459.117C882.211 457.932 881.248 456.969 880.063 456.969H862.667C862.79 457.293 862.87 457.652 862.87 458.065ZM867.603 468.139C870.557 468.139 870.552 472.722 867.603 472.722C864.649 472.722 864.654 468.139 867.603 468.139ZM865.311 477.019C865.311 475.734 866.361 474.783 867.603 474.727C868.841 474.672 869.895 475.82 869.895 477.019C869.895 477.974 869.895 478.929 869.895 479.883C869.895 481.168 868.845 482.119 867.603 482.175C866.366 482.23 865.311 481.082 865.311 479.883C865.311 478.929 865.311 477.974 865.311 477.019Z" fill="#0071BC"/>
<path d="M882.211 591.114V541.419H862.87C862.87 557.984 862.87 574.549 862.87 591.114H882.211ZM874.764 576.557C871.81 576.557 871.815 571.974 874.764 571.974C877.718 571.974 877.713 576.557 874.764 576.557ZM872.854 555.122C872.854 552.168 877.437 552.173 877.437 555.122C877.437 558.687 877.437 562.251 877.437 565.816C877.437 568.77 872.854 568.765 872.854 565.816C872.854 562.251 872.854 558.686 872.854 555.122Z" fill="#0071BC"/>
<path d="M331.387 124.318H149.784V229.342H331.387V124.318ZM311.585 139.211C315.281 139.211 318.277 142.207 318.277 145.902C318.277 149.597 315.281 152.593 311.585 152.593C307.889 152.593 304.894 149.597 304.894 145.902C304.894 142.207 307.89 139.211 311.585 139.211ZM287.919 139.211C291.615 139.211 294.61 142.207 294.61 145.902C294.61 149.597 291.614 152.593 287.919 152.593C284.224 152.593 281.228 149.597 281.228 145.902C281.228 142.207 284.223 139.211 287.919 139.211ZM264.252 139.211C267.948 139.211 270.943 142.207 270.943 145.902C270.943 149.597 267.947 152.593 264.252 152.593C260.557 152.593 257.561 149.597 257.561 145.902C257.561 142.207 260.556 139.211 264.252 139.211ZM240.585 139.211C244.281 139.211 247.276 142.207 247.276 145.902C247.276 149.597 244.28 152.593 240.585 152.593C236.889 152.593 233.893 149.597 233.893 145.902C233.893 142.207 236.89 139.211 240.585 139.211ZM162.629 132.909H183.361V171.732H162.629V132.909ZM212.317 218.565H163.128V180.661H212.317V218.565ZM212.317 171.731H191.585V132.908H212.317V171.731ZM247.777 218.565H233.394V180.661H247.777V218.565ZM271.444 218.565H257.061V180.661H271.444V218.565ZM295.11 218.565H280.727V180.661H295.11V218.565ZM318.777 218.565H304.394V180.661H318.777V218.565ZM320.37 171.731H233.773V165.564H320.37V171.731Z" fill="white"/>
<path d="M882.211 532.253V507.955H862.87C862.87 516.054 862.87 524.154 862.87 532.253H882.211Z" fill="#F4BB3A"/>
<path d="M810.636 578.992H741.89V591.114H810.636V578.992Z" fill="#85402A"/>
<path d="M167.785 420.576C167.785 417.733 165.472 415.42 162.629 415.42C160.855 415.42 159.288 416.321 158.36 417.689C158.673 417.614 159.005 417.565 159.37 417.565C164.037 417.565 164.458 424.1 160.681 425.344C161.283 425.591 161.939 425.732 162.629 425.732C165.472 425.732 167.785 423.419 167.785 420.576Z" fill="#F09B36"/>
<path d="M893.955 124.318H712.352V229.342H893.955V124.318ZM746.87 203.755H725.483V182.368H746.87V203.755ZM777.563 203.755H756.176V182.368H777.563V203.755ZM808.257 203.755H786.87V182.368H808.257V203.755ZM838.95 219.632H817.563V198.245H838.95V219.632ZM838.95 190.505H817.563V169.118H838.95V190.505ZM870.2 219.632H848.813V198.245H870.2V219.632ZM870.2 190.505H848.813V169.118H870.2V190.505ZM880.825 161.377H725.483V135.377H880.824L880.825 161.377Z" fill="white"/>
<path d="M185.428 471.72C183.585 471.72 181.741 471.72 179.898 471.72L201.399 526.86C203.244 526.86 205.089 526.86 206.933 526.86L185.428 471.72Z" fill="#F09B36"/>
<path d="M62.132 591.114H118.18V563.142H62.203C62.203 572.227 62.203 581.313 62.203 590.398C62.203 590.653 62.169 590.885 62.132 591.114ZM86.863 574.791C94.183 574.791 101.503 574.791 108.823 574.791C112.515 574.791 112.509 580.52 108.823 580.52C101.503 580.52 94.183 580.52 86.863 580.52C83.17 580.519 83.176 574.791 86.863 574.791ZM76.742 574.791C80.434 574.791 80.428 580.52 76.742 580.52C73.049 580.519 73.055 574.791 76.742 574.791ZM65.093 574.791C68.785 574.791 68.779 580.52 65.093 580.52C61.401 580.519 61.407 574.791 65.093 574.791Z" fill="#A17A94"/>
<path d="M180.488 459.055C178.634 459.027 176.78 458.999 174.925 458.97L177.83 466.421C179.673 466.421 181.517 466.421 183.36 466.421L180.488 459.055Z" fill="#31B78D"/>
<path d="M170.451 433.319L165.653 435.191L173.577 455.512C175.431 455.54 177.285 455.568 179.139 455.597L170.451 433.319Z" fill="#31B78D"/>
<path d="M255.051 582.238H207.152C205.544 583.059 201.924 586.569 197.871 591.114H264.331C260.279 586.569 256.659 583.059 255.051 582.238Z" fill="#4AC6E0"/>
<path d="M224.956 573.072L208.274 530.297C206.429 530.297 204.584 530.297 202.739 530.297L219.418 573.072H224.956Z" fill="#31B78D"/>
<path d="M68.349 494.014H73.256L69.436 463.059L64.602 463.656L68.349 494.014Z" fill="#F4BB3A"/>
<path d="M67.3467 446.017L62.5132 446.614L63.7762 456.846L68.6096 456.25L67.3467 446.017Z" fill="#CA6A4F"/>
<path d="M118.18 556.268V534.88H62.203C62.203 542.009 62.203 549.139 62.203 556.268H118.18Z" fill="#895881"/>
<path d="M110.238 476.197L95.853 473.728L92.37 494.014H107.176L110.238 476.197Z" fill="#BEC0C2"/>
<path d="M112.86 460.935C113.143 459.299 112.04 457.741 110.402 457.456L101.944 456.014C101.147 455.876 100.352 456.055 99.698 456.519C99.043 456.982 98.608 457.671 98.474 458.461L97.016 466.952L111.402 469.421L112.86 460.935Z" fill="#C2CE2F"/>
<path d="M704.332 245.002H901.976C906.557 245.002 910.283 241.275 910.283 236.695V116.964C910.283 112.384 906.557 108.657 901.976 108.657H704.332C699.751 108.657 696.025 112.384 696.025 116.964V236.696C696.025 241.276 699.751 245.002 704.332 245.002ZM703.186 121.167C703.186 117.85 705.885 115.152 709.201 115.152H897.106C900.422 115.152 903.121 117.85 903.121 121.167V232.493C903.121 235.81 900.422 238.508 897.106 238.508H709.202C705.886 238.508 703.187 235.81 703.187 232.493V121.167H703.186Z" fill="#7989A3"/>
<path d="M1031.27 606.065C994.752 606.065 958.231 606.065 921.71 606.065C792.185 606.065 662.661 606.065 533.136 606.065V618.612H1034.44C1034.5 618.612 1034.58 618.548 1034.58 618.463V604.234C1033.97 605.295 1032.87 606.065 1031.27 606.065Z" fill="#B55232"/>
<path d="M62.203 528.005H118.18V505.663C118.18 504.293 117.067 503.18 115.698 503.18H62.204C62.203 511.455 62.203 519.73 62.203 528.005Z" fill="#A17A94"/>
<path d="M426.524 555.504L430.139 566.776C431.833 572.047 436.353 575.628 441.485 576.414H445.713C446.45 576.302 447.187 576.147 447.919 575.912C455.336 573.538 459.433 565.565 457.055 558.139L456.209 555.504H426.524Z" fill="#F8DB94"/>
<path d="M269.108 305.798L266.375 309.894C267.1 310.352 267.825 310.811 268.551 311.269C270.418 312.449 268.692 315.422 266.816 314.237C266.033 313.742 265.25 313.248 264.467 312.753L258.164 322.197L245.24 341.562C247.857 344.98 251.886 349.939 255.452 353.394L259.152 347.85C259.031 347.784 258.913 347.709 258.804 347.62C257.754 346.761 256.703 345.901 255.653 345.042C254.931 344.451 255.047 343.218 255.653 342.611C256.355 341.909 257.366 342.024 258.084 342.611C259.068 343.416 260.053 344.222 261.037 345.027L283.74 311.012C278.928 309.033 274.047 307.294 269.108 305.798Z" fill="#F09B36"/>
<path d="M533.136 576.319V591.114H559.663L546.905 555.504H501.402C498.402 567.643 494.561 579.52 489.886 591.114H510.602V576.319C510.602 570.106 515.656 565.052 521.869 565.052C528.082 565.051 533.136 570.105 533.136 576.319Z" fill="#60718D"/>
<path d="M476.323 585.58H446.329C445.421 585.688 444.513 585.758 443.612 585.758C442.699 585.758 441.796 585.686 440.899 585.58H383.232V591.114H474.34L476.323 585.58Z" fill="#60718D"/>
<path d="M195.825 374.808L198.668 370.718C197.294 369.655 196.029 368.473 194.874 367.183L191.585 371.919C192.837 372.728 194.088 373.537 195.34 374.346C195.547 374.48 195.703 374.638 195.825 374.808Z" fill="#F09B36"/>
<path d="M217.489 299.027C219.934 308.602 225.676 324.172 238.543 335.082L259.776 303.269C245.978 299.983 231.798 298.552 217.489 299.027ZM230.899 314.083C228.427 311.236 226.567 308.059 225.289 304.512C224.537 302.424 227.859 301.533 228.603 303.598C229.672 306.566 231.262 309.271 233.329 311.653C234.774 313.317 232.351 315.757 230.899 314.083ZM235.814 319.19C233.599 319.19 233.602 315.753 235.814 315.753C238.03 315.753 238.026 319.19 235.814 319.19Z" fill="#31B78D"/>
<path d="M509.87 606.065C473.349 606.065 436.828 606.065 400.307 606.065C269.926 606.065 139.546 606.065 9.16504 606.065V618.463C9.16504 618.548 9.23804 618.612 9.30304 618.612H510.604V605.992C510.369 606.031 510.13 606.065 509.87 606.065Z" fill="#B55232"/>
<path d="M224.387 333.711C224.029 333.275 223.69 332.833 223.346 332.392L220.408 330.416L198.092 362.55C199.298 363.858 200.424 365.236 201.479 366.673L224.387 333.711Z" fill="#31B78D"/>
<path d="M193.958 377.494C193.841 377.45 193.723 377.391 193.605 377.314C192.278 376.457 190.951 375.599 189.625 374.742L167.21 407.018C168.863 407.578 170.387 408.422 171.708 409.509L193.958 377.494Z" fill="#F09B36"/>
<path d="M521.87 574.217C520.711 574.217 519.769 575.159 519.769 576.318V640.862C519.769 642.02 520.711 642.962 521.87 642.962C523.028 642.962 523.97 642.02 523.97 640.862V576.318C523.97 575.159 523.028 574.217 521.87 574.217Z" fill="#CA6A4F"/>
<path d="M183.361 132.909H162.629V171.732H183.361V132.909Z" fill="#31B78D"/>
<path d="M191.585 171.731H212.317V132.908H191.585V171.731ZM200.87 157.065C206.026 157.065 206.018 165.065 200.87 165.065C195.714 165.065 195.722 157.065 200.87 157.065Z" fill="#31B78D"/>
<path d="M163.128 218.565H212.317V180.661H163.128V218.565ZM180.203 202.398C184.87 202.398 189.536 202.398 194.203 202.398C199.359 202.398 199.351 210.398 194.203 210.398C189.536 210.398 184.87 210.398 180.203 210.398C175.047 210.398 175.056 202.398 180.203 202.398Z" fill="#F09B36"/>
<path d="M320.37 165.565H233.773V171.732H320.37V165.565Z" fill="#EF4D4E"/>
<path d="M240.585 152.593C244.28 152.593 247.276 149.597 247.276 145.902C247.276 142.207 244.28 139.211 240.585 139.211C236.89 139.211 233.894 142.207 233.894 145.902C233.894 149.597 236.89 152.593 240.585 152.593Z" fill="#EF4D4E"/>
<path d="M264.252 152.593C267.947 152.593 270.943 149.597 270.943 145.902C270.943 142.207 267.947 139.211 264.252 139.211C260.557 139.211 257.561 142.207 257.561 145.902C257.561 149.597 260.557 152.593 264.252 152.593Z" fill="#EF4D4E"/>
<path d="M287.919 152.593C291.614 152.593 294.61 149.597 294.61 145.902C294.61 142.207 291.614 139.211 287.919 139.211C284.224 139.211 281.228 142.207 281.228 145.902C281.228 149.597 284.224 152.593 287.919 152.593Z" fill="#EF4D4E"/>
<path d="M311.585 152.593C315.28 152.593 318.276 149.597 318.276 145.902C318.276 142.207 315.28 139.211 311.585 139.211C307.89 139.211 304.894 142.207 304.894 145.902C304.894 149.597 307.89 152.593 311.585 152.593Z" fill="#EF4D4E"/>
<path d="M247.777 180.661H233.394V218.565H247.777V180.661Z" fill="#F09B36"/>
<path d="M271.444 180.661H257.061V218.565H271.444V180.661Z" fill="#31B78D"/>
<path d="M295.11 180.661H280.727V218.565H295.11V180.661Z" fill="#F09B36"/>
<path d="M318.777 180.661H304.394V218.565H318.777V180.661Z" fill="#31B78D"/>
<path d="M725.483 161.377H880.824V135.377H725.483V161.377ZM793.37 148.065C797.237 148.065 797.231 154.065 793.37 154.065C789.503 154.065 789.509 148.065 793.37 148.065ZM744.87 149.065C755.87 149.065 766.87 149.065 777.87 149.065C781.737 149.065 781.731 155.065 777.87 155.065C766.87 155.065 755.87 155.065 744.87 155.065C741.003 155.065 741.009 149.065 744.87 149.065Z" fill="#0071BC"/>
<path d="M746.87 182.368H725.483V203.755H746.87V182.368Z" fill="#999999"/>
<path d="M777.564 182.368H756.177V203.755H777.564V182.368Z" fill="#445D7B"/>
<path d="M808.257 182.368H786.87V203.755H808.257V182.368Z" fill="#445D7B"/>
<path d="M838.95 169.118H817.563V190.505H838.95V169.118Z" fill="#EF4D4E"/>
<path d="M870.2 169.118H848.813V190.505H870.2V169.118Z" fill="#60718D"/>
<path d="M838.95 198.245H817.563V219.632H838.95V198.245Z" fill="#EF4D4E"/>
<path d="M870.2 198.245H848.813V219.632H870.2V198.245Z" fill="#60718D"/>
<path d="M62.203 590.398C62.203 581.313 62.203 572.227 62.203 563.142H57.073V591.114H62.132C62.169 590.885 62.203 590.653 62.203 590.398Z" fill="white"/>
<path d="M62.203 534.88H57.073V556.268H62.203C62.203 549.139 62.203 542.009 62.203 534.88Z" fill="white"/>
<path d="M59.555 503.18C58.186 503.18 57.073 504.293 57.073 505.663V528.005H62.203C62.203 519.73 62.203 511.455 62.203 503.18H59.555Z" fill="white"/>
<path d="M509.87 606.065C510.13 606.065 510.369 606.031 510.603 605.992V600.28H122.763H52.4901H9.30206C9.23606 600.28 9.16406 600.333 9.16406 600.418V606.065C139.545 606.065 269.925 606.065 400.306 606.065C436.828 606.065 473.349 606.065 509.87 606.065Z" fill="white"/>
<path d="M1031.27 606.065C1032.87 606.065 1033.97 605.295 1034.57 604.234V600.417C1034.57 600.332 1034.5 600.279 1034.44 600.279H1024.29H991.058H981.892H957.831H948.665H924.604H915.438H891.377H882.211H848.984H815.219H737.307H533.136V606.064C662.661 606.064 792.185 606.064 921.71 606.064C958.231 606.065 994.752 606.065 1031.27 606.065Z" fill="white"/>
<path d="M407.537 365.731C434.648 365.731 461.759 365.731 488.87 365.731C494.018 365.731 494.026 357.731 488.87 357.731C461.759 357.731 434.648 357.731 407.537 357.731C402.389 357.731 402.38 365.731 407.537 365.731Z" fill="white"/>
<path d="M514.203 365.731C519.351 365.731 519.359 357.731 514.203 357.731C509.056 357.731 509.047 365.731 514.203 365.731Z" fill="white"/>
<path d="M528.87 365.731C534.018 365.731 534.026 357.731 528.87 357.731C523.722 357.731 523.714 365.731 528.87 365.731Z" fill="white"/>
<path d="M458.662 269.612C459.752 265.513 461.752 261.949 464.72 258.915C468.322 255.232 462.671 249.57 459.063 253.258C455.158 257.251 452.383 262.085 450.948 267.485C449.624 272.466 457.338 274.591 458.662 269.612Z" fill="white"/>
<path d="M496.87 248.065C502.018 248.065 502.026 240.065 496.87 240.065C491.722 240.065 491.714 248.065 496.87 248.065Z" fill="white"/>
<path d="M520.37 237.565C525.518 237.565 525.526 229.565 520.37 229.565C515.222 229.565 515.214 237.565 520.37 237.565Z" fill="white"/>
<path d="M512.87 256.065C518.018 256.065 518.026 248.065 512.87 248.065C507.722 248.065 507.714 256.065 512.87 256.065Z" fill="white"/>
<path d="M637.537 541.065C566.71 541.065 495.882 541.065 425.055 541.065C404.771 541.065 384.487 541.065 364.203 541.065C361.073 541.065 359.855 544.019 360.531 546.338H493.608H550.132H641.207C641.886 544.019 640.672 541.065 637.537 541.065Z" fill="white"/>
<path d="M496.834 555.504L484.077 591.114H489.887C494.561 579.52 498.402 567.643 501.403 555.504H496.834Z" fill="white"/>
<path d="M180.203 210.398C184.87 210.398 189.536 210.398 194.203 210.398C199.351 210.398 199.359 202.398 194.203 202.398C189.536 202.398 184.87 202.398 180.203 202.398C175.056 202.398 175.047 210.398 180.203 210.398Z" fill="white"/>
<path d="M200.87 165.065C206.018 165.065 206.026 157.065 200.87 157.065C195.722 157.065 195.714 165.065 200.87 165.065Z" fill="white"/>
<path d="M285.934 307.721C281.373 305.751 275.249 303.934 271.089 302.83L269.108 305.798C274.047 307.294 278.928 309.033 283.738 311.01L285.934 307.721Z" fill="white"/>
<path d="M259.775 303.269L262.537 299.131C244.717 289.996 224.68 292.649 216.436 294.347C216.688 295.65 217.031 297.234 217.488 299.028C231.798 298.552 245.978 299.983 259.775 303.269Z" fill="white"/>
<path d="M159.37 417.565C159.005 417.565 158.673 417.614 158.36 417.689C157.801 418.513 157.473 419.507 157.473 420.576C157.473 422.729 158.802 424.573 160.681 425.344C164.458 424.1 164.037 417.565 159.37 417.565Z" fill="white"/>
<path d="M444.483 64.5461C447.437 55.7701 453.139 48.4601 460.916 43.4371C464.149 41.3491 461.144 36.1531 457.888 38.2561C448.758 44.1531 442.164 52.6521 438.698 62.9501C437.462 66.6191 443.255 68.1921 444.483 64.5461Z" fill="white"/>
<path d="M473.537 40.731C477.398 40.731 477.404 34.731 473.537 34.731C469.676 34.731 469.67 40.731 473.537 40.731Z" fill="white"/>
<path d="M490.537 102.731C486.676 102.731 486.67 108.731 490.537 108.731C494.397 108.731 494.404 102.731 490.537 102.731Z" fill="white"/>
<path d="M608.745 99.0649C612.606 99.0649 612.612 93.0649 608.745 93.0649C604.884 93.0649 604.878 99.0649 608.745 99.0649Z" fill="white"/>
<path d="M744.87 155.065C755.87 155.065 766.87 155.065 777.87 155.065C781.731 155.065 781.737 149.065 777.87 149.065C766.87 149.065 755.87 149.065 744.87 149.065C741.009 149.065 741.003 155.065 744.87 155.065Z" fill="white"/>
<path d="M793.37 154.065C797.231 154.065 797.237 148.065 793.37 148.065C789.509 148.065 789.503 154.065 793.37 154.065Z" fill="white"/>
<path d="M745.328 477.252C745.808 477.74 746.482 478.065 747.37 478.065C767.313 478.065 787.256 478.065 807.199 478.065V472.818H745.394C745.372 472.839 745.349 472.859 745.328 472.88V477.252Z" fill="white"/>
<path d="M862.667 456.968H860.298C859.113 456.968 858.15 457.931 858.15 459.116V498.788H862.87C862.87 485.213 862.87 471.639 862.87 458.064C862.87 457.652 862.79 457.293 862.667 456.968Z" fill="white"/>
<path d="M862.87 541.419H858.151V591.114H862.87C862.87 574.549 862.87 557.984 862.87 541.419Z" fill="white"/>
<path d="M862.87 507.955H858.151V532.253H862.87C862.87 524.153 862.87 516.054 862.87 507.955Z" fill="white"/>
<path d="M915.37 488.065C915.394 488.065 915.414 488.059 915.438 488.058V484.705C915.438 483.52 914.475 482.557 913.29 482.557H893.526C892.341 482.557 891.378 483.52 891.378 484.705V488.065C899.375 488.065 907.372 488.065 915.37 488.065Z" fill="white"/>
<path d="M928.87 578.992H924.605V591.114H928.87C928.87 587.073 928.87 583.032 928.87 578.992Z" fill="white"/>
<path d="M928.396 434.435H926.752C925.567 434.435 924.604 435.398 924.604 436.583V484.705V569.826H928.87C928.87 525.239 928.87 480.652 928.87 436.065C928.87 435.406 928.686 434.869 928.396 434.435Z" fill="white"/>
<path d="M958.87 466.565C966.203 466.565 973.537 466.565 980.87 466.565C981.252 466.565 981.586 466.492 981.893 466.386V464.845C981.893 463.66 980.93 462.697 979.745 462.697H959.981C958.796 462.697 957.833 463.66 957.833 464.845V466.381C958.142 466.491 958.481 466.565 958.87 466.565Z" fill="white"/>
<path d="M1015.12 515.521V491.223H1011.87C1011.87 499.322 1011.87 507.422 1011.87 515.521H1015.12Z" fill="white"/>
<path d="M1011.87 482.056H1015.12V459.116C1015.12 457.931 1014.16 456.968 1012.97 456.968H1011.88C1011.88 457.002 1011.87 457.03 1011.87 457.065C1011.87 465.395 1011.87 473.726 1011.87 482.056Z" fill="white"/>
<path d="M1015.12 591.114V524.687H1011.87C1011.87 546.829 1011.87 568.972 1011.87 591.114H1015.12Z" fill="white"/>
<path d="M612.203 445.398C624.425 445.398 636.647 445.398 648.87 445.398C652.731 445.398 652.737 439.398 648.87 439.398C636.648 439.398 624.426 439.398 612.203 439.398C608.343 439.398 608.336 445.398 612.203 445.398Z" fill="white"/>
<path d="M670.203 436.731C666.342 436.731 666.336 442.731 670.203 442.731C674.064 442.731 674.07 436.731 670.203 436.731Z" fill="white"/>
<path d="M1034.44 591.114H1024.29V459.117C1024.29 452.878 1019.21 447.803 1012.97 447.803H993.208C988.795 447.803 984.974 450.348 983.11 454.043C982.047 453.711 980.917 453.532 979.746 453.532H959.982C959.247 453.532 958.53 453.608 957.834 453.743V436.584C957.834 430.345 952.759 425.27 946.52 425.27H926.756C920.517 425.27 915.442 430.345 915.442 436.584V473.602C914.746 473.468 914.029 473.392 913.294 473.392H893.53C892.795 473.392 892.078 473.468 891.382 473.602V459.118C891.382 452.879 886.307 447.804 880.068 447.804H860.304C854.065 447.804 848.99 452.879 848.99 459.118V591.115H819.808V574.41C819.808 572.277 818.344 570.5 816.371 569.989V559.444C830.961 557.721 834.99 547.804 834.99 542.329V495.639C834.99 487.825 826.414 484.367 825.435 483.998C824.919 483.803 824.371 483.704 823.819 483.704H816.372V468.236C816.372 465.705 814.32 463.653 811.789 463.653H740.752C738.221 463.653 736.169 465.705 736.169 468.236V569.988C734.196 570.499 732.732 572.276 732.732 574.409V591.114H669.68V580.997C669.68 578.466 667.628 576.414 665.097 576.414H641.175C644.839 572.115 646.983 566.501 646.748 560.425C646.746 560.371 646.742 560.319 646.739 560.266L646.389 555.504H686.485C697.014 555.504 705.58 546.938 705.58 536.408V346.594C705.58 336.064 697.014 327.498 686.485 327.498H615.871C617.343 325.046 618.479 322.55 619.17 320.64C622.104 312.535 621.675 305.511 618.084 300.855C630.143 289.22 629.976 267.722 629.96 266.701C629.923 264.369 628.141 262.436 625.819 262.211C621.364 261.78 618.036 260.877 615.719 260.011C622.582 249.804 624.708 234.571 624.959 232.596C625.181 230.858 624.392 229.147 622.927 228.186C621.463 227.225 619.579 227.183 618.073 228.077C612.193 231.569 604.318 232.299 598.455 232.272C603.783 222.251 604.649 208.268 604.748 206.272C604.829 204.634 604.029 203.079 602.649 202.192C601.27 201.305 599.522 201.225 598.065 201.977C583.796 209.358 562.412 214.521 549.809 217.131C556.031 201.977 548.561 185.813 548.171 184.989C547.437 183.441 545.902 182.431 544.191 182.371C542.477 182.311 540.877 183.208 540.035 184.702C528.817 204.615 496.852 219.712 483.507 225.327C482.288 217.548 477.949 209.919 473.296 204.923C472.094 203.633 470.26 203.144 468.577 203.672C466.895 204.197 465.662 205.64 465.407 207.384C464.34 214.685 458.662 222.368 454.483 227.513C448.842 234.459 442.973 242.071 438.272 250.665C429.552 266.604 428.3 284.119 428.447 298.158C428.187 298.35 427.926 298.553 427.665 298.771C422.295 303.247 421.173 311.218 424.585 320.642C425.276 322.552 426.412 325.047 427.883 327.499H357.27C346.74 327.499 338.174 336.065 338.174 346.595V536.409C338.174 546.939 346.74 555.505 357.27 555.505H416.905L421.419 569.579C422.232 572.109 423.444 574.4 424.955 576.415H378.65C376.119 576.415 374.067 578.467 374.067 580.998V591.115H276.369C261.83 573.074 257.122 573.073 255.542 573.073H234.794L177.325 425.721C177.12 425.194 176.813 424.722 176.44 424.312C176.763 423.119 176.951 421.871 176.951 420.578C176.951 419.806 176.872 419.053 176.754 418.313L230.834 340.498C232.547 342.061 234.378 343.559 236.338 344.974C238.535 347.968 247.27 359.564 253.892 363.985C254.651 364.491 255.537 364.756 256.436 364.756C256.735 364.756 257.035 364.727 257.332 364.668C258.524 364.43 259.573 363.728 260.248 362.718L296.383 308.576C297.058 307.564 297.303 306.327 297.066 305.135C296.828 303.942 296.126 302.894 295.115 302.219C288.492 297.8 274.429 294.182 270.823 293.302C243.563 276.524 211.283 286.083 209.909 286.503C207.823 287.14 206.475 289.159 206.687 291.331C206.775 292.238 208.246 306.094 215.963 320.883C215.781 321.068 215.605 321.262 215.452 321.482L155.065 408.437C151.015 410.97 148.306 415.457 148.306 420.577C148.306 425.735 151.056 430.251 155.158 432.773C155.178 433.267 155.259 433.766 155.448 434.252L209.579 573.073H206.66C205.081 573.073 200.372 573.075 185.833 591.115H127.345V505.664C127.345 499.24 122.12 494.015 115.697 494.015H114.151L119.634 462.104C120.563 456.738 116.948 451.614 111.566 450.682L103.108 449.24C100.508 448.79 97.887 449.38 95.729 450.906C93.571 452.432 92.139 454.706 91.698 457.304L85.396 494.015H79.029L72.665 442.456C72.572 441.702 72.183 441.015 71.583 440.548C70.983 440.081 70.223 439.866 69.469 439.965L58.951 441.272C57.382 441.467 56.267 442.897 56.461 444.465L62.578 494.015H59.556C53.133 494.015 47.908 499.24 47.908 505.664V591.115H9.304C4.174 591.115 0 595.289 0 600.419V618.465C0 623.601 4.174 627.78 9.304 627.78H510.605V640.864C510.605 647.076 515.659 652.13 521.872 652.13C528.084 652.13 533.138 647.076 533.138 640.864V627.778H1034.44C1039.57 627.778 1043.74 623.599 1043.74 618.463V600.418C1043.74 595.287 1039.57 591.114 1034.44 591.114ZM816.365 492.868H822.849C824.323 493.608 825.818 494.848 825.818 495.637V542.327C825.818 542.621 825.695 548.689 816.365 550.2V492.868ZM57.073 534.88H62.203H118.18V556.268H62.203H57.073V534.88ZM57.073 563.142H62.203H118.18V591.114H62.132H57.073V563.142ZM447.918 575.911C447.186 576.147 446.449 576.301 445.712 576.413H441.484C436.352 575.627 431.832 572.046 430.138 566.775L426.523 555.503H456.208L457.054 558.138C459.433 565.565 455.336 573.537 447.918 575.911ZM465.827 555.504H487.098L479.607 576.414H462.221C466.548 570.62 468.14 562.912 465.827 555.504ZM637.584 560.853C637.845 568.611 631.769 575.154 624.002 575.454C620.253 575.603 616.635 574.276 613.865 571.712C611.094 569.15 609.487 565.659 609.339 561.969L609.2 555.504H637.192L637.584 560.853ZM600.031 555.504L600.176 562.25C600.386 567.527 602.343 572.458 605.717 576.414H564.133L556.642 555.504H600.031ZM858.151 507.955H862.87H882.211V532.253H862.87H858.151V507.955ZM858.151 541.419H862.87H882.211V591.114H862.87H858.151V541.419ZM893.526 482.557H913.29C914.475 482.557 915.438 483.52 915.438 484.705V488.058V591.114H891.377V488.065V484.705C891.378 483.52 892.341 482.557 893.526 482.557ZM924.605 578.992H928.87H948.666V591.114H928.87H924.605V578.992ZM959.98 462.697H979.744C980.929 462.697 981.892 463.66 981.892 464.845V466.386V591.114H957.831V466.382V464.846C957.832 463.66 958.795 462.697 959.98 462.697ZM991.059 464.845V459.116C991.059 457.931 992.022 456.968 993.207 456.968H1011.88H1012.97C1014.16 456.968 1015.12 457.931 1015.12 459.116V482.056H1011.87H991.059V464.845ZM991.059 491.222H1011.87H1015.12V515.52H1011.87H991.059V491.222ZM991.059 524.687H1011.87H1015.12V591.114H1011.87H1001.94C1001.94 582.427 1001.94 573.739 1001.94 565.052C1001.94 562.103 997.36 562.098 997.36 565.052C997.36 573.739 997.36 582.427 997.36 591.114H991.058L991.059 524.687ZM948.666 436.583V464.845V569.825H928.87H924.605V484.704V436.582C924.605 435.397 925.568 434.434 926.753 434.434H928.397H946.518C947.702 434.435 948.666 435.398 948.666 436.583ZM882.211 459.117V484.705V498.789H862.87H858.151V459.117C858.151 457.932 859.114 456.969 860.299 456.969H862.668H880.064C881.248 456.968 882.211 457.932 882.211 459.117ZM745.394 472.818H807.199V478.065V480.265C797.333 480.265 787.466 480.265 777.6 480.265C774.651 480.265 774.646 484.848 777.6 484.848C787.466 484.848 797.333 484.848 807.199 484.848V569.825H745.328V559.131C753.094 559.131 760.859 559.131 768.625 559.131C771.574 559.131 771.579 554.548 768.625 554.548C760.859 554.548 753.094 554.548 745.328 554.548V477.251V472.879V472.817L745.394 472.818ZM741.89 578.992H810.636V591.114H741.89V578.992ZM660.507 585.58V591.114H569.399L567.416 585.58H660.507ZM446.305 255.061C450.654 247.111 456.221 239.899 461.59 233.289C465.023 229.062 468.862 223.915 471.504 218.233C473.722 222.486 475.101 227.294 474.552 231.41C474.341 232.997 474.972 234.58 476.219 235.585C477.465 236.589 479.147 236.871 480.653 236.326C482.539 235.644 522.796 220.88 542.391 197.276C543.642 203.94 543.669 213.301 536.877 220.46C535.524 221.886 535.232 224.016 536.15 225.755C537.067 227.492 538.975 228.454 540.934 228.139C542.34 227.911 572.272 223 594.706 213.62C593.445 221.138 590.876 229.558 586.792 232.499C585.287 233.582 584.583 235.464 585.008 237.268C585.432 239.072 586.901 240.443 588.731 240.742C589.399 240.85 602.254 242.873 614.282 239.497C612.645 246.039 609.784 254.091 605.468 258.047C604.498 258.937 603.956 260.2 603.983 261.517C604.009 262.833 604.6 264.074 605.604 264.925C606.15 265.387 610.72 269.037 620.603 270.755C620.071 277.195 617.996 289.882 609.966 295.739C608.244 295.396 606.691 295.472 605.446 295.694C603.517 296.039 601.748 296.826 600.161 297.827V288.027H590.995V295.894C530.396 301.08 468.506 293.015 452.74 290.715V288.027H443.574V297.826C441.987 296.826 440.219 296.039 438.291 295.694C438.069 295.654 437.833 295.621 437.592 295.592C437.617 282.675 439.069 268.289 446.305 255.061ZM602.856 314.442C602.139 315.64 601.221 316.623 600.163 317.444V310.602C601.658 308.421 604.513 305.163 607.073 304.713C607.773 304.59 608.764 304.603 610.215 305.812C612.274 307.527 612.032 311.158 611.704 313.17C610.541 320.306 605.797 326.62 604.021 327.498H600.162V321.549C602.514 320.33 604.459 318.458 605.823 316.178C606.963 314.274 603.992 312.544 602.856 314.442ZM558.916 318.331C555.752 318.331 553.187 320.896 553.187 324.06V327.497H490.552V324.06C490.552 320.896 487.987 318.331 484.823 318.331C481.659 318.331 479.094 320.896 479.094 324.06V327.497H452.741V299.973C466.422 301.924 504.794 306.763 548.66 306.763C562.428 306.763 576.741 306.28 590.996 305.086V327.496H564.644V324.059C564.645 320.896 562.08 318.331 558.916 318.331ZM433.525 305.812C434.975 304.604 435.966 304.59 436.666 304.713C439.225 305.164 442.081 308.421 443.575 310.603V315.979C442.632 315.177 441.726 314.327 440.886 313.384C439.413 311.728 436.989 314.166 438.455 315.815C439.978 317.527 441.706 319.021 443.574 320.323V327.498H439.716C437.94 326.62 433.197 320.307 432.034 313.172C431.708 311.159 431.465 307.528 433.525 305.812ZM347.332 536.407V346.594C347.332 341.118 351.787 336.664 357.262 336.664H686.477C691.952 336.664 696.406 341.118 696.406 346.594V536.408C696.406 541.884 691.952 546.338 686.477 546.338H641.207H550.132H493.608H360.531H357.262C351.787 546.338 347.332 541.883 347.332 536.407ZM383.233 585.58H440.9C441.797 585.686 442.7 585.758 443.613 585.758C444.514 585.758 445.421 585.688 446.33 585.58H476.324L474.342 591.114H383.234V585.58H383.233ZM217.489 299.027C217.031 297.233 216.688 295.649 216.437 294.346C224.681 292.649 244.717 289.996 262.538 299.13L259.776 303.268L238.543 335.081C225.677 324.172 219.934 308.602 217.489 299.027ZM258.083 342.609C257.365 342.022 256.355 341.907 255.652 342.609C255.046 343.215 254.93 344.449 255.652 345.04C256.702 345.899 257.753 346.759 258.803 347.618C258.912 347.708 259.03 347.782 259.151 347.848L255.451 353.392C251.885 349.937 247.856 344.978 245.239 341.56L258.163 322.195L264.466 312.751C265.249 313.246 266.032 313.741 266.815 314.235C268.69 315.42 270.417 312.447 268.55 311.267C267.825 310.809 267.099 310.35 266.374 309.892L269.107 305.796L271.088 302.828C275.247 303.932 281.371 305.749 285.933 307.719L283.738 311.008L261.035 345.023C260.051 344.22 259.067 343.414 258.083 342.609ZM220.407 330.416L223.345 332.392C223.689 332.833 224.028 333.275 224.386 333.711L201.478 366.674C200.423 365.236 199.297 363.859 198.091 362.551L220.407 330.416ZM194.874 367.183C196.029 368.473 197.294 369.654 198.668 370.718L195.825 374.808C195.703 374.638 195.547 374.48 195.34 374.346C194.088 373.537 192.837 372.728 191.585 371.919L194.874 367.183ZM189.625 374.742C190.952 375.599 192.279 376.457 193.605 377.314C193.724 377.391 193.842 377.45 193.958 377.494L171.708 409.509C170.386 408.423 168.863 407.579 167.21 407.018L189.625 374.742ZM160.681 425.344C158.802 424.573 157.473 422.729 157.473 420.576C157.473 419.507 157.801 418.513 158.36 417.689C159.288 416.321 160.855 415.42 162.629 415.42C165.472 415.42 167.785 417.733 167.785 420.576C167.785 423.419 165.472 425.732 162.629 425.732C161.939 425.732 161.283 425.591 160.681 425.344ZM165.653 435.191L170.451 433.319L179.14 455.597C177.286 455.569 175.432 455.541 173.578 455.512L165.653 435.191ZM174.926 458.97C176.78 458.998 178.634 459.026 180.489 459.055L183.362 466.421C181.519 466.421 179.675 466.421 177.832 466.421L174.926 458.97ZM179.897 471.72C181.741 471.72 183.584 471.72 185.427 471.72L206.932 526.86C205.087 526.86 203.242 526.86 201.398 526.86L179.897 471.72ZM202.739 530.297C204.584 530.297 206.429 530.297 208.274 530.297L224.956 573.072H219.418L202.739 530.297ZM207.152 582.238H255.051C256.659 583.059 260.279 586.569 264.332 591.114H197.872C201.924 586.569 205.544 583.059 207.152 582.238ZM98.474 458.461C98.608 457.671 99.043 456.982 99.698 456.519C100.353 456.056 101.147 455.877 101.944 456.014L110.402 457.456C112.04 457.74 113.143 459.299 112.86 460.935L111.402 469.421L97.016 466.952L98.474 458.461ZM95.853 473.728L110.238 476.197L107.177 494.015H92.37L95.853 473.728ZM73.256 494.014H68.349L64.602 463.656L69.435 463.059L73.256 494.014ZM62.497 446.603L67.33 446.002L68.593 456.236L63.76 456.833L62.497 446.603ZM115.698 503.18C117.067 503.18 118.18 504.293 118.18 505.663V528.005H62.203H57.073V505.663C57.073 504.293 58.186 503.18 59.555 503.18H62.203H115.698ZM9.302 618.612C9.237 618.612 9.164 618.548 9.164 618.463V606.065V600.418C9.164 600.333 9.236 600.28 9.302 600.28H52.49H122.763H510.603V605.992V618.612H9.302ZM510.603 576.319V591.114H489.887H484.077L496.834 555.504H501.402H546.905L559.663 591.114H533.136V576.319C533.136 570.106 528.082 565.052 521.87 565.052C515.657 565.051 510.603 570.105 510.603 576.319ZM523.97 640.863C523.97 642.021 523.028 642.963 521.87 642.963C520.711 642.963 519.769 642.021 519.769 640.863V576.319C519.769 575.16 520.711 574.218 521.87 574.218C523.028 574.218 523.97 575.16 523.97 576.319V640.863ZM1034.44 618.612H533.136V606.065V600.28H737.307H815.219H848.984H882.211H891.377H915.438H924.604H948.665H957.831H981.892H991.058H1024.29H1034.44C1034.5 600.28 1034.57 600.333 1034.57 600.418V604.235V618.464C1034.57 618.548 1034.5 618.612 1034.44 618.612Z" fill="#0D0E1F"/>
<path d="M521.87 474.346C539.981 474.346 554.716 459.611 554.716 441.5C554.716 423.389 539.981 408.655 521.87 408.655C503.759 408.655 489.025 423.39 489.025 441.5C489.025 459.611 503.759 474.346 521.87 474.346ZM521.87 417.821C534.927 417.821 545.549 428.444 545.549 441.5C545.549 454.557 534.926 465.179 521.87 465.179C508.813 465.179 498.191 454.556 498.191 441.5C498.191 428.444 508.813 417.821 521.87 417.821Z" fill="#0D0E1F"/>
<path d="M649.336 361.87H673.397C676.403 361.87 678.839 359.433 678.839 356.428C678.839 353.423 676.402 350.986 673.397 350.986H649.336C646.33 350.986 643.894 353.423 643.894 356.428C643.894 359.433 646.33 361.87 649.336 361.87Z" fill="#0D0E1F"/>
<path d="M372.157 513.874C372.157 482.047 372.157 450.221 372.157 418.394C372.157 413.971 365.282 413.963 365.282 418.394C365.282 450.221 365.282 482.047 365.282 513.874C365.282 518.298 372.157 518.305 372.157 513.874Z" fill="#0D0E1F"/>
<path d="M368.72 398.916C373.143 398.916 373.151 392.041 368.72 392.041C364.296 392.042 364.289 398.916 368.72 398.916Z" fill="#0D0E1F"/>
<path d="M368.72 381.348C373.143 381.348 373.151 374.473 368.72 374.473C364.296 374.473 364.289 381.348 368.72 381.348Z" fill="#0D0E1F"/>
<path d="M368.72 363.78C373.143 363.78 373.151 356.905 368.72 356.905C364.296 356.905 364.289 363.78 368.72 363.78Z" fill="#0D0E1F"/>
<path d="M574.193 522.658C602.455 522.658 630.717 522.658 658.979 522.658C663.402 522.658 663.41 515.783 658.979 515.783C630.717 515.783 602.455 515.783 574.193 515.783C569.769 515.784 569.762 522.658 574.193 522.658Z" fill="#0D0E1F"/>
<path d="M672.728 515.02C668.305 515.02 668.297 521.895 672.728 521.895C677.152 521.895 677.159 515.02 672.728 515.02Z" fill="#0D0E1F"/>
<path d="M65.093 580.519C68.779 580.519 68.785 574.79 65.093 574.79C61.407 574.791 61.401 580.519 65.093 580.519Z" fill="#0D0E1F"/>
<path d="M76.742 580.519C80.428 580.519 80.434 574.79 76.742 574.79C73.055 574.791 73.049 580.519 76.742 580.519Z" fill="#0D0E1F"/>
<path d="M86.863 580.519C94.183 580.519 101.503 580.519 108.823 580.519C112.509 580.519 112.515 574.79 108.823 574.79C101.503 574.79 94.183 574.79 86.863 574.79C83.176 574.791 83.17 580.519 86.863 580.519Z" fill="#0D0E1F"/>
<path d="M228.603 303.598C227.859 301.533 224.536 302.424 225.289 304.512C226.567 308.06 228.427 311.236 230.899 314.083C232.352 315.756 234.774 313.317 233.33 311.652C231.261 309.271 229.672 306.566 228.603 303.598Z" fill="#0D0E1F"/>
<path d="M235.814 315.753C233.602 315.753 233.599 319.19 235.814 319.19C238.026 319.19 238.03 315.753 235.814 315.753Z" fill="#0D0E1F"/>
<path d="M903.408 508.527C899.928 508.527 897.106 511.348 897.106 514.829V558.654C897.106 562.134 899.927 564.956 903.408 564.956C906.889 564.956 909.71 562.135 909.71 558.654V514.829C909.71 511.349 906.888 508.527 903.408 508.527Z" fill="#0D0E1F"/>
<path d="M975.591 486.088H963.847V506.425H975.591V486.088Z" fill="#0D0E1F"/>
<path d="M975.591 516.926H963.847V561.994H975.591V516.926Z" fill="#0D0E1F"/>
<path d="M941.982 488.286C941.982 474.919 941.982 461.552 941.982 448.184C941.982 445.235 937.399 445.23 937.399 448.184C937.399 461.551 937.399 474.918 937.399 488.286C937.399 491.235 941.982 491.239 941.982 488.286Z" fill="#0D0E1F"/>
<path d="M939.308 500.889C942.257 500.889 942.262 496.306 939.308 496.306C936.36 496.306 936.355 500.889 939.308 500.889Z" fill="#0D0E1F"/>
<path d="M939.308 510.437C942.257 510.437 942.262 505.854 939.308 505.854C936.36 505.854 936.355 510.437 939.308 510.437Z" fill="#0D0E1F"/>
<path d="M999.27 555.504C1002.22 555.504 1002.22 550.921 999.27 550.921C996.321 550.921 996.316 555.504 999.27 555.504Z" fill="#0D0E1F"/>
<path d="M877.437 565.815C877.437 562.25 877.437 558.686 877.437 555.121C877.437 552.172 872.854 552.167 872.854 555.121C872.854 558.686 872.854 562.25 872.854 565.815C872.854 568.764 877.437 568.769 877.437 565.815Z" fill="#0D0E1F"/>
<path d="M874.764 571.974C871.815 571.974 871.81 576.557 874.764 576.557C877.713 576.557 877.718 571.974 874.764 571.974Z" fill="#0D0E1F"/>
<path d="M867.603 482.175C868.845 482.119 869.895 481.168 869.895 479.883C869.895 478.928 869.895 477.973 869.895 477.019C869.895 475.82 868.841 474.672 867.603 474.727C866.362 474.783 865.311 475.734 865.311 477.019C865.311 477.974 865.311 478.929 865.311 479.883C865.311 481.082 866.365 482.23 867.603 482.175Z" fill="#0D0E1F"/>
<path d="M867.603 472.722C870.552 472.722 870.557 468.139 867.603 468.139C864.654 468.139 864.649 472.722 867.603 472.722Z" fill="#0D0E1F"/>
<path d="M1007.96 461.838C1006.72 461.894 1005.67 462.845 1005.67 464.13C1005.67 465.085 1005.67 466.04 1005.67 466.994C1005.67 468.193 1006.72 469.341 1007.96 469.286C1009.2 469.23 1010.25 468.279 1010.25 466.994C1010.25 466.039 1010.25 465.084 1010.25 464.13C1010.25 462.931 1009.2 461.782 1007.96 461.838Z" fill="#0D0E1F"/>
<path d="M474.973 278.526C488.812 280.713 502.714 281.477 516.707 280.692C520.373 280.486 520.397 274.756 516.707 274.963C503.242 275.718 489.82 275.107 476.496 273.001C472.889 272.432 471.336 277.951 474.973 278.526Z" fill="#0D0E1F"/>
<path d="M527.312 279.089C530.998 279.089 531.004 273.36 527.312 273.36C523.626 273.36 523.62 279.089 527.312 279.089Z" fill="#0D0E1F"/>
<path d="M537.051 278.23C540.737 278.23 540.743 272.501 537.051 272.501C533.365 272.501 533.359 278.23 537.051 278.23Z" fill="#0D0E1F"/>
<path d="M565.981 243.857C569.667 243.857 569.673 238.128 565.981 238.128C562.295 238.128 562.289 243.857 565.981 243.857Z" fill="#0D0E1F"/>
<path d="M772.266 536.649C776.175 536.649 780.372 535.561 784.283 533.303C794.04 527.669 798.38 516.854 793.957 509.195C789.535 501.536 777.999 499.886 768.242 505.521C758.485 511.155 754.145 521.969 758.567 529.629C761.217 534.219 766.421 536.649 772.266 536.649ZM771.68 511.475C774.527 509.831 777.595 509.029 780.34 509.029C783.732 509.029 786.632 510.255 788.004 512.633C790.488 516.935 787.21 523.676 780.845 527.35C774.482 531.024 767.004 530.494 764.52 526.192C762.037 521.889 765.316 515.149 771.68 511.475Z" fill="#0D0E1F"/>
<path d="M770.637 522.676C770.992 522.958 771.637 523.277 772.533 523.357C773.421 523.434 774.519 523.26 775.601 522.733C776.697 522.196 777.652 521.376 778.472 520.497C779.288 519.62 779.919 518.773 780.514 518.102C781.114 517.428 781.745 516.851 782.369 516.451C782.989 516.046 783.615 515.81 784.094 515.719C784.572 515.627 784.877 515.627 784.877 515.627C784.877 515.627 784.655 515.45 784.167 515.247C783.684 515.049 782.902 514.879 781.957 514.98C781.013 515.072 779.94 515.432 778.913 516.079C777.887 516.733 777 517.595 776.198 518.454C775.403 519.311 774.728 520.083 774.104 520.633C773.468 521.196 772.811 521.606 772.227 521.861C771.643 522.108 771.122 522.204 770.748 522.212C770.373 522.225 770.151 522.188 770.151 522.188C770.151 522.188 770.19 522.235 770.262 522.322C770.336 522.414 770.457 522.533 770.637 522.676Z" fill="#0D0E1F"/>
<path d="M780.273 554.549C777.324 554.549 777.319 559.132 780.273 559.132C783.222 559.132 783.227 554.549 780.273 554.549Z" fill="#0D0E1F"/>
<path d="M790.585 554.549C787.636 554.549 787.631 559.132 790.585 559.132C793.534 559.132 793.539 554.549 790.585 554.549Z" fill="#0D0E1F"/>
<path d="M449.267 72.139C449.267 87.116 461.451 99.3 476.428 99.3C491.405 99.3 503.589 87.116 503.589 72.139C503.589 57.162 491.405 44.978 476.428 44.978C461.452 44.978 449.267 57.162 449.267 72.139ZM476.428 54.144C486.35 54.144 494.423 62.216 494.423 72.139C494.423 82.061 486.35 90.134 476.428 90.134C466.506 90.134 458.433 82.061 458.433 72.139C458.433 62.216 466.506 54.144 476.428 54.144Z" fill="#0D0E1F"/>
<path d="M584.751 130.297C585.892 130.502 587.029 130.601 588.15 130.601C597.265 130.601 605.374 124.069 607.039 114.79C607.944 109.742 606.83 104.644 603.902 100.434C600.973 96.224 596.58 93.407 591.532 92.502C581.116 90.635 571.113 97.589 569.243 108.009C568.338 113.056 569.452 118.155 572.38 122.365C575.311 126.575 579.704 129.391 584.751 130.297ZM577.139 109.426C578.108 104.023 582.83 100.22 588.137 100.22C588.789 100.22 589.453 100.278 590.116 100.397C593.055 100.925 595.613 102.564 597.318 105.015C599.023 107.467 599.672 110.435 599.144 113.374C598.056 119.442 592.238 123.493 586.167 122.404C583.228 121.876 580.67 120.236 578.964 117.785C577.26 115.333 576.611 112.365 577.139 109.426Z" fill="#0D0E1F"/>
<path d="M546.823 92.7339C544.642 92.3399 542.56 93.7929 542.167 95.9729L539.671 109.882C539.483 110.929 539.719 112.007 540.327 112.881C540.935 113.754 541.863 114.35 542.911 114.538L551.246 116.033C551.298 116.447 551.363 116.858 551.429 117.269C549.866 117.953 548.205 118.407 546.502 118.554C544.961 118.687 543.637 119.775 543.637 121.418C543.637 122.864 544.951 124.416 546.502 124.282C548.336 124.123 550.085 123.752 551.787 123.202L545.727 127.418C544.854 128.026 544.258 128.955 544.07 130.002C543.882 131.049 544.118 132.128 544.726 133.001L552.798 144.601C554.065 146.42 556.563 146.867 558.38 145.602L565.333 140.764C567.102 142.142 568.987 143.353 570.972 144.385L569.477 152.719C569.086 154.899 570.537 156.983 572.716 157.374L586.625 159.87C586.86 159.912 587.097 159.933 587.333 159.933C588.146 159.933 588.947 159.686 589.623 159.215C590.496 158.607 591.092 157.678 591.28 156.631L592.775 148.297C594.996 148.019 597.184 147.539 599.323 146.862L604.16 153.815C604.768 154.688 605.696 155.284 606.744 155.471C607.79 155.66 608.87 155.424 609.743 154.816L621.343 146.745C623.161 145.48 623.609 142.981 622.344 141.163L617.507 134.21C617.922 133.677 618.316 133.13 618.701 132.577C623.205 136.65 628.059 140.292 633.273 143.419C636.442 145.32 639.326 140.369 636.164 138.472C631.539 135.698 627.244 132.515 623.225 128.945L629.462 130.064C631.64 130.456 633.726 129.005 634.118 126.825L636.613 112.916C637.004 110.736 635.553 108.652 633.374 108.261L625.04 106.766C624.763 104.544 624.284 102.357 623.606 100.218L630.559 95.3799C632.377 94.1149 632.825 91.6159 631.56 89.7979L623.489 78.1979C622.881 77.3249 621.952 76.7289 620.906 76.5409C619.861 76.3519 618.78 76.5879 617.907 77.1959L610.954 82.0339C610.759 81.8819 610.558 81.7409 610.361 81.5929C613.643 77.0749 616.466 72.2809 618.769 67.1749C620.273 63.8409 615.337 60.9249 613.822 64.2839C611.547 69.3269 608.765 74.0659 605.535 78.5349C605.46 78.4959 605.388 78.4519 605.313 78.4129L606.809 70.0789C606.997 69.0319 606.761 67.9539 606.153 67.0799C605.545 66.2069 604.616 65.6109 603.569 65.4229L589.66 62.9279C587.481 62.5349 585.396 63.9869 585.004 66.1669L583.509 74.5009C581.287 74.7789 579.099 75.2589 576.961 75.9359L572.123 68.9829C570.857 67.1639 568.358 66.7179 566.541 67.9819L554.941 76.0529C554.068 76.6609 553.472 77.5899 553.284 78.6369C553.096 79.6839 553.332 80.7619 553.94 81.6359L558.778 88.5889C557.399 90.3589 556.189 92.2429 555.156 94.2289L546.823 92.7339ZM561.193 100.251C562.517 97.0429 564.393 94.1199 566.77 91.5649C568.056 90.1829 568.203 88.0919 567.126 86.5429L562.815 80.3469L567.831 76.8569L572.142 83.0529C573.221 84.6029 575.235 85.1889 576.975 84.4649C580.196 83.1249 583.589 82.3819 587.056 82.2559C588.942 82.1879 590.526 80.8139 590.859 78.9569L592.192 71.5329L598.206 72.6119L596.873 80.0359C596.54 81.8929 597.547 83.7319 599.292 84.4519C602.5 85.7749 605.422 87.6509 607.978 90.0279C609.359 91.3119 611.449 91.4609 613 90.3829L619.195 86.0719L622.685 91.0879L616.49 95.3989C614.941 96.4769 614.353 98.4889 615.078 100.231C616.418 103.452 617.161 106.845 617.287 110.315C617.355 112.2 618.729 113.784 620.587 114.117L628.01 115.449L626.931 121.464L619.507 120.133C617.647 119.801 615.812 120.807 615.092 122.55C613.767 125.761 611.892 128.683 609.516 131.237C608.23 132.618 608.083 134.71 609.16 136.259L613.47 142.455L608.454 145.945L604.144 139.749C603.065 138.199 601.05 137.614 599.311 138.337C596.09 139.677 592.697 140.42 589.229 140.546C587.343 140.614 585.759 141.988 585.426 143.845L584.095 151.269L578.08 150.19L579.413 142.766C579.745 140.909 578.739 139.07 576.995 138.351C573.786 137.027 570.865 135.151 568.309 132.774C566.928 131.49 564.838 131.34 563.287 132.419L557.092 136.73L553.601 131.714L559.798 127.403C561.347 126.325 561.935 124.313 561.21 122.571C559.87 119.35 559.127 115.957 559.001 112.487C558.933 110.602 557.559 109.018 555.701 108.685L548.277 107.353L549.357 101.338L556.78 102.67C558.639 103.007 560.473 101.996 561.193 100.251Z" fill="#0D0E1F"/>
<path d="M141.764 254.169H339.408C349.042 254.169 356.881 246.33 356.881 236.696V116.964C356.881 107.33 349.042 99.491 339.408 99.491H141.764C132.13 99.491 124.291 107.33 124.291 116.964V236.696C124.291 246.33 132.129 254.169 141.764 254.169ZM133.457 116.964C133.457 112.384 137.184 108.657 141.764 108.657H339.408C343.988 108.657 347.715 112.384 347.715 116.964V236.696C347.715 241.276 343.988 245.003 339.408 245.003H141.764C137.184 245.003 133.457 241.276 133.457 236.696V116.964Z" fill="#0D0E1F"/>
<path d="M146.633 238.508H334.538C337.855 238.508 340.553 235.81 340.553 232.493V121.167C340.553 117.85 337.855 115.152 334.538 115.152H146.633C143.316 115.152 140.618 117.85 140.618 121.167V232.493C140.618 235.81 143.316 238.508 146.633 238.508ZM149.784 124.318H331.387V229.342H149.784V124.318Z" fill="#0D0E1F"/>
<path d="M704.332 254.169H901.976C911.611 254.169 919.449 246.33 919.449 236.696V116.964C919.449 107.33 911.611 99.491 901.976 99.491H704.332C694.697 99.491 686.859 107.33 686.859 116.964V236.696C686.859 246.33 694.697 254.169 704.332 254.169ZM696.025 116.964C696.025 112.384 699.751 108.657 704.332 108.657H901.976C906.557 108.657 910.283 112.384 910.283 116.964V236.696C910.283 241.276 906.557 245.003 901.976 245.003H704.332C699.751 245.003 696.025 241.276 696.025 236.696V116.964Z" fill="#0D0E1F"/>
<path d="M709.202 238.508H897.107C900.423 238.508 903.122 235.81 903.122 232.493V121.167C903.122 117.85 900.423 115.152 897.107 115.152H709.202C705.886 115.152 703.187 117.85 703.187 121.167V232.493C703.186 235.81 705.885 238.508 709.202 238.508ZM712.352 124.318H893.955V229.342H712.352V124.318Z" fill="#0D0E1F"/>
<path d="M447.777 5.72899C451.463 5.72899 451.469 0 447.777 0C444.091 0.001 444.085 5.72899 447.777 5.72899Z" fill="#0D0E1F"/>
<path d="M542.78 45.354C546.466 45.354 546.472 39.625 542.78 39.625C539.094 39.625 539.088 45.354 542.78 45.354Z" fill="#0D0E1F"/>
<path d="M403.851 102.229C412.18 101.055 420.097 98.6329 427.668 95.0769C428.142 96.0819 428.64 97.0779 429.178 98.0559L419.55 107.684C418.691 108.544 418.208 109.709 418.208 110.925C418.208 112.141 418.691 113.306 419.551 114.166L434.404 129.019C436.194 130.808 439.096 130.809 440.885 129.019L450.513 119.391C453.956 121.286 457.579 122.789 461.343 123.883V137.492C461.343 140.023 463.395 142.075 465.926 142.075H486.932C489.463 142.075 491.515 140.023 491.515 137.492V123.883C492.683 123.543 493.833 123.15 494.972 122.732C495.749 124.664 496.526 126.597 497.303 128.529C497.88 129.963 499.214 130.973 500.827 130.53C502.189 130.156 503.408 128.45 502.828 127.006C501.955 124.834 501.082 122.663 500.209 120.491C500.927 120.137 501.643 119.777 502.346 119.39L511.974 129.018C513.764 130.807 516.666 130.807 518.455 129.018L533.309 114.165C534.168 113.305 534.652 112.14 534.652 110.924C534.652 109.708 534.169 108.543 533.309 107.683L523.682 98.0549C525.576 94.6109 527.079 90.9889 528.173 87.2249H541.783C544.314 87.2249 546.366 85.1729 546.366 82.6419V61.6359C546.366 59.1049 544.314 57.0529 541.783 57.0529H528.173C527.933 56.2289 527.666 55.4149 527.387 54.6039C527.988 54.2759 528.567 53.8739 529.112 53.4469C531.314 51.7209 533.505 49.9789 535.701 48.2459C536.925 47.2799 536.693 45.2089 535.701 44.1949C534.515 42.9829 532.858 43.2419 531.65 44.1949C530.313 45.2499 528.976 46.3059 527.639 47.3609C526.899 47.9449 526.105 48.7699 525.236 49.3039C524.748 48.2629 524.236 47.2329 523.68 46.2219L533.307 36.5949C534.166 35.7349 534.65 34.5699 534.65 33.3539C534.65 32.1379 534.167 30.9729 533.307 30.1129L518.454 15.2599C516.664 13.4709 513.762 13.4709 511.972 15.2599L502.344 24.8879C498.9 22.9929 495.278 21.4899 491.514 20.3959V6.78589C491.514 4.25489 489.462 2.20288 486.931 2.20288H465.925C463.394 2.20288 461.342 4.25489 461.342 6.78589V20.3959C460.616 20.6069 459.899 20.8469 459.184 21.0889C457.67 17.8139 456.155 14.5379 454.641 11.2629C453.095 7.91988 448.156 10.8269 449.694 14.1539C451.089 17.1709 452.484 20.1879 453.879 23.2049C452.741 23.7309 451.614 24.2819 450.512 24.8889L440.884 15.2609C439.094 13.4719 436.192 13.4719 434.402 15.2609L419.549 30.1139C417.759 31.9039 417.759 34.8059 419.549 36.5959L429.177 46.2239C427.282 49.6679 425.779 53.2899 424.685 57.0549H411.075C408.544 57.0549 406.492 59.1069 406.492 61.6379V82.6439C406.492 85.1749 408.544 87.2269 411.075 87.2269H424.685C424.935 88.0849 425.212 88.9339 425.503 89.7769C418.139 93.2889 410.44 95.5629 402.328 96.7059C398.692 97.2169 400.239 102.738 403.851 102.229ZM415.658 78.0589V66.2189H428.248C430.405 66.2189 432.269 64.7159 432.727 62.6079C433.857 57.4029 435.897 52.4819 438.793 47.9819C439.96 46.1679 439.704 43.7869 438.18 42.2619L429.272 33.3539L437.644 24.9819L446.552 33.8899C448.077 35.4149 450.459 35.6719 452.272 34.5029C456.773 31.6079 461.694 29.5669 466.898 28.4369C469.005 27.9789 470.509 26.1149 470.509 23.9579V11.3679H482.349V23.9579C482.349 26.1149 483.852 27.9789 485.96 28.4369C491.165 29.5669 496.085 31.6069 500.586 34.5029C502.399 35.6719 504.782 35.4149 506.306 33.8899L515.214 24.9819L523.586 33.3539L514.679 42.2609C513.154 43.7859 512.898 46.1679 514.065 47.9809C516.96 52.4819 519.001 57.4029 520.131 62.6079C520.589 64.7149 522.453 66.2189 524.61 66.2189H537.2V78.0589H524.61C522.453 78.0589 520.589 79.5619 520.131 81.6699C519.001 86.8749 516.961 91.7959 514.065 96.2959C512.898 98.1099 513.154 100.491 514.678 102.016L523.586 110.924L515.214 119.296L506.306 110.388C504.78 108.864 502.4 108.608 500.586 109.775C496.085 112.67 491.164 114.711 485.96 115.841C483.852 116.299 482.349 118.163 482.349 120.32V132.909H470.509V120.32C470.509 118.163 469.006 116.299 466.898 115.841C461.693 114.711 456.772 112.671 452.272 109.775C450.459 108.608 448.077 108.864 446.552 110.388L437.644 119.296L429.272 110.924L438.18 102.016C439.705 100.491 439.96 98.1089 438.793 96.2959C435.898 91.7949 433.857 86.8739 432.727 81.6699C432.269 79.5629 430.405 78.0589 428.248 78.0589H415.658Z" fill="#0D0E1F"/>
<path d="M393.163 102.355C396.849 102.355 396.855 96.626 393.163 96.626C389.476 96.627 389.47 102.355 393.163 102.355Z" fill="#0D0E1F"/>
<path d="M506.975 142.075C510.661 142.075 510.667 136.346 506.975 136.346C503.289 136.346 503.282 142.075 506.975 142.075Z" fill="#0D0E1F"/>
<path d="M538.101 118.969C534.415 118.969 534.409 124.698 538.101 124.698C541.787 124.698 541.794 118.969 538.101 118.969Z" fill="#0D0E1F"/>
<path d="M620.978 57.0979C624.664 57.0979 624.67 51.3689 620.978 51.3689C617.292 51.3689 617.286 57.0979 620.978 57.0979Z" fill="#0D0E1F"/>
<path d="M643.129 148.377C646.815 148.377 646.821 142.648 643.129 142.648C639.443 142.648 639.437 148.377 643.129 148.377Z" fill="#0D0E1F"/>
</svg>
