<svg width="512" height="256" viewBox="0 0 512 256" fill="none" xmlns="http://www.w3.org/2000/svg">
<rect width="512" height="256" fill="#FFB800"/>
<g filter="url(#filter0_d_12_9)">
<path d="M238.396 145.879C238.396 145.879 238.396 87.8667 238.396 69.6667C238.396 51.4667 220.205 33.2667 202.015 33.2667C189.888 33.2667 189.888 33.2667 189.888 33.2667V9L153.507 45.4L189.888 81.8V57.5333C189.888 57.5333 195.951 57.5333 202.015 57.5333C208.078 57.5333 214.142 63.6 214.142 69.6667C214.142 75.7333 214.142 145.879 214.142 145.879C206.941 150.05 202.015 157.823 202.015 166.733C202.015 180.194 212.815 191 226.269 191C239.722 191 250.522 180.194 250.522 166.733C250.522 157.823 245.596 150.05 238.396 145.879ZM226.269 178.867C219.637 178.867 214.142 173.369 214.142 166.733C214.142 160.098 219.637 154.6 226.269 154.6C232.901 154.6 238.396 160.098 238.396 166.733C238.396 173.369 232.901 178.867 226.269 178.867ZM129.254 21.1333C115.8 21.1333 105 31.9396 105 45.4C105 54.3104 109.927 62.0833 117.127 66.2542V145.69C109.927 149.86 105 157.633 105 166.544C105 180.004 115.8 190.81 129.254 190.81C142.707 190.81 153.507 180.004 153.507 166.544C153.507 157.633 148.581 149.86 141.381 145.69V66.2542C148.581 62.0833 153.507 54.3104 153.507 45.4C153.507 31.9396 142.707 21.1333 129.254 21.1333ZM129.254 178.867C122.622 178.867 117.127 173.369 117.127 166.733C117.127 160.098 122.622 154.6 129.254 154.6C135.886 154.6 141.381 160.098 141.381 166.733C141.381 173.369 135.886 178.867 129.254 178.867ZM129.254 57.5333C122.622 57.5333 117.127 52.0354 117.127 45.4C117.127 38.7646 122.622 33.2667 129.254 33.2667C135.886 33.2667 141.381 38.7646 141.381 45.4C141.381 52.0354 135.886 57.5333 129.254 57.5333Z" fill="#1B7F36"/>
</g>
<g filter="url(#filter1_d_12_9)">
<path fill-rule="evenodd" clip-rule="evenodd" d="M304.151 109.34V109.299V109.351C304.144 111.409 303.318 113.38 301.856 114.832C300.393 116.283 298.413 117.097 296.35 117.093C294.287 117.09 292.309 116.27 290.852 114.813C289.394 113.357 288.575 111.383 288.575 109.325C288.575 107.266 289.394 105.292 290.852 103.836C292.309 102.379 294.287 101.559 296.35 101.556C298.413 101.553 300.393 102.366 301.856 103.818C303.318 105.269 304.144 107.241 304.151 109.299V109.34ZM308.823 129.021C313.296 126.207 316.68 121.964 318.422 116.983C320.164 112.002 320.161 106.58 318.413 101.601C316.665 96.6229 313.275 92.3833 308.798 89.5756C304.322 86.7679 299.023 85.5583 293.768 86.1443C288.512 86.7304 283.612 89.0775 279.867 92.8021C276.123 96.5266 273.756 101.408 273.153 106.649C272.55 111.889 273.747 117.179 276.548 121.653C279.35 126.127 283.59 129.52 288.575 131.279V185.721C283.379 187.554 279 191.16 276.211 195.902C273.423 200.644 272.405 206.217 273.337 211.635C274.268 217.054 277.091 221.969 281.304 225.513C285.518 229.056 290.852 231 296.363 231C301.874 231 307.208 229.056 311.422 225.513C315.635 221.969 318.457 217.054 319.389 211.635C320.321 206.217 319.303 200.644 316.514 195.902C313.726 191.16 309.347 187.554 304.151 185.721V149.416C309.74 155.548 316.553 160.446 324.154 163.794C331.754 167.143 339.972 168.868 348.28 168.858H362.589C364.426 174.044 368.042 178.416 372.798 181.199C377.554 183.983 383.143 185 388.577 184.07C394.012 183.141 398.942 180.324 402.496 176.119C406.051 171.913 408 166.59 408 161.089C408 155.589 406.051 150.266 402.496 146.06C398.942 141.855 394.012 139.038 388.577 138.109C383.143 137.179 377.554 138.196 372.798 140.98C368.042 143.763 364.426 148.135 362.589 153.321H348.28C340.091 153.322 332.063 151.049 325.094 146.757C318.126 142.466 312.492 136.324 308.823 129.021ZM384.623 168.858C386.688 168.858 388.669 168.04 390.129 166.583C391.59 165.126 392.41 163.15 392.41 161.089C392.41 159.029 391.59 157.053 390.129 155.596C388.669 154.139 386.688 153.321 384.623 153.321C382.557 153.321 380.577 154.139 379.116 155.596C377.656 157.053 376.835 159.029 376.835 161.089C376.835 163.15 377.656 165.126 379.116 166.583C380.577 168.04 382.557 168.858 384.623 168.858ZM296.363 215.47C298.428 215.47 300.409 214.651 301.87 213.194C303.33 211.738 304.151 209.762 304.151 207.701C304.151 205.641 303.33 203.665 301.87 202.208C300.409 200.751 298.428 199.933 296.363 199.933C294.298 199.933 292.317 200.751 290.856 202.208C289.396 203.665 288.575 205.641 288.575 207.701C288.575 209.762 289.396 211.738 290.856 213.194C292.317 214.651 294.298 215.47 296.363 215.47Z" fill="#8250DF"/>
</g>
<defs>
<filter id="filter0_d_12_9" x="105" y="9" width="159.522" height="196" filterUnits="userSpaceOnUse" color-interpolation-filters="sRGB">
<feFlood flood-opacity="0" result="BackgroundImageFix"/>
<feColorMatrix in="SourceAlpha" type="matrix" values="0 0 0 0 0 0 0 0 0 0 0 0 0 0 0 0 0 0 127 0" result="hardAlpha"/>
<feOffset dx="10" dy="10"/>
<feGaussianBlur stdDeviation="2"/>
<feComposite in2="hardAlpha" operator="out"/>
<feColorMatrix type="matrix" values="0 0 0 0 0 0 0 0 0 0 0 0 0 0 0 0 0 0 0.25 0"/>
<feBlend mode="normal" in2="BackgroundImageFix" result="effect1_dropShadow_12_9"/>
<feBlend mode="normal" in="SourceGraphic" in2="effect1_dropShadow_12_9" result="shape"/>
</filter>
<filter id="filter1_d_12_9" x="273" y="86" width="148" height="159" filterUnits="userSpaceOnUse" color-interpolation-filters="sRGB">
<feFlood flood-opacity="0" result="BackgroundImageFix"/>
<feColorMatrix in="SourceAlpha" type="matrix" values="0 0 0 0 0 0 0 0 0 0 0 0 0 0 0 0 0 0 127 0" result="hardAlpha"/>
<feOffset dx="9" dy="10"/>
<feGaussianBlur stdDeviation="2"/>
<feComposite in2="hardAlpha" operator="out"/>
<feColorMatrix type="matrix" values="0 0 0 0 0 0 0 0 0 0 0 0 0 0 0 0 0 0 0.25 0"/>
<feBlend mode="normal" in2="BackgroundImageFix" result="effect1_dropShadow_12_9"/>
<feBlend mode="normal" in="SourceGraphic" in2="effect1_dropShadow_12_9" result="shape"/>
</filter>
</defs>
</svg>
