<svg width="1475" height="856" viewBox="0 0 1475 856" fill="none" xmlns="http://www.w3.org/2000/svg">
<mask id="path-1-outside-1_29_10" maskUnits="userSpaceOnUse" x="0" y="0" width="1475" height="856" fill="black">
<rect fill="white" width="1475" height="856"/>
<path d="M1060.49 623.206C1028.24 623.206 1002.01 596.953 1002.01 564.704C1002.01 532.455 1028.24 506.223 1060.49 506.223C1092.74 506.223 1118.98 532.45 1118.98 564.704C1118.98 596.958 1092.74 623.206 1060.49 623.206ZM414.047 623.206C381.798 623.206 355.566 596.953 355.566 564.704C355.566 532.455 381.793 506.223 414.047 506.223C446.296 506.223 472.528 532.45 472.528 564.704C472.528 596.958 446.301 623.206 414.047 623.206ZM1081.47 270.906L1198.35 68.4638C1201.57 62.8769 1202.44 56.2418 1200.77 50.0143C1199.1 43.7869 1195.03 38.4757 1189.45 35.2463C1183.86 32.0302 1177.23 31.1612 1171 32.8298C1164.78 34.4985 1159.46 38.5685 1156.23 44.1474L1037.89 249.148C947.375 207.848 845.731 184.838 737.268 184.838C628.805 184.838 527.161 207.848 436.656 249.148L318.302 44.1474C315.071 38.5685 309.76 34.4985 303.533 32.8298C297.306 31.1612 290.672 32.0302 285.084 35.2463C279.501 38.4727 275.427 43.7839 273.758 50.0126C272.089 56.2413 272.961 62.8779 276.183 68.4638L393.071 270.906C192.358 380.07 55.0825 583.266 35 823.331H1439.54C1419.44 583.271 1282.16 380.07 1081.47 270.9"/>
</mask>
<path d="M1060.49 623.206C1028.24 623.206 1002.01 596.953 1002.01 564.704C1002.01 532.455 1028.24 506.223 1060.49 506.223C1092.74 506.223 1118.98 532.45 1118.98 564.704C1118.98 596.958 1092.74 623.206 1060.49 623.206ZM414.047 623.206C381.798 623.206 355.566 596.953 355.566 564.704C355.566 532.455 381.793 506.223 414.047 506.223C446.296 506.223 472.528 532.45 472.528 564.704C472.528 596.958 446.301 623.206 414.047 623.206ZM1081.47 270.906L1198.35 68.4638C1201.57 62.8769 1202.44 56.2418 1200.77 50.0143C1199.1 43.7869 1195.03 38.4757 1189.45 35.2463C1183.86 32.0302 1177.23 31.1612 1171 32.8298C1164.78 34.4985 1159.46 38.5685 1156.23 44.1474L1037.89 249.148C947.375 207.848 845.731 184.838 737.268 184.838C628.805 184.838 527.161 207.848 436.656 249.148L318.302 44.1474C315.071 38.5685 309.76 34.4985 303.533 32.8298C297.306 31.1612 290.672 32.0302 285.084 35.2463C279.501 38.4727 275.427 43.7839 273.758 50.0126C272.089 56.2413 272.961 62.8779 276.183 68.4638L393.071 270.906C192.358 380.07 55.0825 583.266 35 823.331H1439.54C1419.44 583.271 1282.16 380.07 1081.47 270.9" fill="#3DDB85"/>
<path d="M1053.75 254.905C1044.92 270.21 1050.16 289.781 1065.46 298.618C1080.77 307.455 1100.34 302.212 1109.18 286.906L1053.75 254.905ZM1198.35 68.4638L1226.07 84.4646L1226.07 84.4491L1226.08 84.4337L1198.35 68.4638ZM1189.45 35.2463L1205.48 7.55034L1205.45 7.53141L1205.42 7.51257L1189.45 35.2463ZM1156.23 44.1474L1128.54 28.1121L1128.53 28.1302L1128.52 28.1482L1156.23 44.1474ZM1037.89 249.148L1024.6 278.26L1051.06 290.333L1065.6 265.147L1037.89 249.148ZM436.656 249.148L408.943 265.147L423.484 290.333L449.941 278.26L436.656 249.148ZM318.302 44.1474L346.015 28.1477L346.005 28.1299L345.994 28.1121L318.302 44.1474ZM285.084 35.2463L269.121 7.51257L269.097 7.52616L269.073 7.53978L285.084 35.2463ZM276.183 68.4638L248.463 84.4519L248.467 84.4583L248.471 84.4646L276.183 68.4638ZM393.071 270.906L408.36 299.017L437.197 283.333L420.783 254.905L393.071 270.906ZM35 823.331L3.11139 820.663L0.211273 855.331H35V823.331ZM1439.54 823.331V855.331H1474.33L1471.42 820.661L1439.54 823.331ZM1096.76 242.79C1081.23 234.345 1061.8 240.085 1053.35 255.61C1044.91 271.135 1050.65 290.566 1066.17 299.011L1096.76 242.79ZM1060.49 591.206C1045.93 591.206 1034.01 579.295 1034.01 564.704H970.007C970.007 614.61 1010.55 655.206 1060.49 655.206V591.206ZM1034.01 564.704C1034.01 550.128 1045.91 538.223 1060.49 538.223V474.223C1010.57 474.223 970.007 514.782 970.007 564.704H1034.01ZM1060.49 538.223C1075.07 538.223 1086.98 550.127 1086.98 564.704H1150.98C1150.98 514.773 1110.41 474.223 1060.49 474.223V538.223ZM1086.98 564.704C1086.98 579.296 1075.06 591.206 1060.49 591.206V655.206C1110.43 655.206 1150.98 614.62 1150.98 564.704H1086.98ZM414.047 591.206C399.487 591.206 387.566 579.295 387.566 564.704H323.566C323.566 614.61 364.11 655.206 414.047 655.206V591.206ZM387.566 564.704C387.566 550.126 399.468 538.223 414.047 538.223V474.223C364.118 474.223 323.566 514.784 323.566 564.704H387.566ZM414.047 538.223C428.625 538.223 440.528 550.125 440.528 564.704H504.528C504.528 514.775 463.967 474.223 414.047 474.223V538.223ZM440.528 564.704C440.528 579.3 428.613 591.206 414.047 591.206V655.206C463.99 655.206 504.528 614.616 504.528 564.704H440.528ZM1109.18 286.906L1226.07 84.4646L1170.64 52.463L1053.75 254.905L1109.18 286.906ZM1226.08 84.4337C1233.53 71.5026 1235.54 56.1453 1231.68 41.7316L1169.86 58.297C1169.34 56.3382 1169.61 54.2512 1170.62 52.4939L1226.08 84.4337ZM1231.68 41.7316C1227.82 27.3177 1218.4 15.025 1205.48 7.55034L1173.42 62.9422C1171.67 61.9265 1170.39 60.256 1169.86 58.297L1231.68 41.7316ZM1205.42 7.51257C1192.49 0.0698054 1177.13 -1.94134 1162.72 1.92032L1179.29 63.7393C1177.33 64.2637 1175.24 63.9906 1173.49 62.9799L1205.42 7.51257ZM1162.72 1.92032C1148.31 5.78193 1136.02 15.201 1128.54 28.1121L1183.93 60.1827C1182.91 61.936 1181.24 63.215 1179.29 63.7393L1162.72 1.92032ZM1128.52 28.1482L1010.17 233.149L1065.6 265.147L1183.95 60.1466L1128.52 28.1482ZM1051.17 220.035C956.477 176.828 850.302 152.838 737.268 152.838V216.838C841.159 216.838 938.272 238.868 1024.6 278.26L1051.17 220.035ZM737.268 152.838C624.234 152.838 518.059 176.828 423.372 220.036L449.941 278.26C536.264 238.868 633.376 216.838 737.268 216.838V152.838ZM464.369 233.148L346.015 28.1477L290.589 60.1471L408.943 265.147L464.369 233.148ZM345.994 28.1121C338.518 15.201 326.227 5.78195 311.816 1.92032L295.251 63.7393C293.294 63.215 291.625 61.936 290.609 60.1827L345.994 28.1121ZM311.816 1.92032C297.405 -1.94134 282.051 0.0698054 269.121 7.51257L301.048 62.9799C299.292 63.9906 297.207 64.2637 295.251 63.7393L311.816 1.92032ZM269.073 7.53978C256.146 15.0103 246.713 27.3079 242.849 41.7299L304.668 58.2953C304.141 60.2599 302.856 61.9351 301.095 62.9527L269.073 7.53978ZM242.849 41.7299C238.984 56.1517 241.004 71.5181 248.463 84.4519L303.903 52.4757C304.919 54.2377 305.194 56.3309 304.668 58.2953L242.849 41.7299ZM248.471 84.4646L365.358 286.906L420.783 254.905L303.895 52.463L248.471 84.4646ZM377.782 242.794C167.7 357.054 24.1008 569.758 3.11139 820.663L66.8886 825.998C86.0643 596.774 217.016 403.085 408.36 299.017L377.782 242.794ZM35 855.331H1439.54V791.331H35V855.331ZM1471.42 820.661C1450.42 569.763 1306.82 357.055 1096.76 242.79L1066.17 299.011C1257.5 403.084 1388.46 596.78 1407.65 826L1471.42 820.661Z" fill="black" mask="url(#path-1-outside-1_29_10)"/>
</svg>
