<svg width="93" height="139" viewBox="0 0 93 139" fill="none" xmlns="http://www.w3.org/2000/svg">
<path d="M17.8955 41.2824C24.5187 41.2824 29.8878 35.9132 29.8878 29.2901C29.8878 22.667 24.5187 17.2979 17.8955 17.2979C11.2724 17.2979 5.90332 22.667 5.90332 29.2901C5.90332 35.9132 11.2724 41.2824 17.8955 41.2824Z" fill="#C8E56E"/>
<path d="M17.8955 41.2824C24.5187 41.2824 29.8878 35.9132 29.8878 29.2901C29.8878 22.667 24.5187 17.2979 17.8955 17.2979C11.2724 17.2979 5.90332 22.667 5.90332 29.2901C5.90332 35.9132 11.2724 41.2824 17.8955 41.2824Z" stroke="black"/>
<path d="M90.3388 23.1668C89.3338 24.0149 88.0332 24.4293 86.7229 24.319C85.4125 24.2087 84.1995 23.5827 83.3504 22.5785L80.4587 19.1552C78.864 28.0998 74.6893 41.1268 63.8311 52.3678C57.683 58.7367 48.1484 63.0643 41.4081 66.1235C39.4924 66.9931 37.8024 67.7601 36.48 68.4425C35.6933 68.821 34.9435 69.2719 34.2403 69.7892C31.0509 72.3123 26.8125 78.1596 25.643 85.8355C25.4153 87.3008 25.311 88.7826 25.3312 90.2653C25.3737 93.8729 25.4375 98.5507 28.3859 102.853C29.5115 104.493 30.7832 105.678 32.0248 106.836C33.9495 108.63 35.802 110.357 36.9265 113.605C37.459 115.412 37.7404 117.284 37.7628 119.169C37.7628 124.176 35.7736 128.979 32.2326 132.52C28.6916 136.061 23.8891 138.05 18.8814 138.05C13.8738 138.05 9.07119 136.061 5.53024 132.52C1.98929 128.979 0 124.176 0 119.169C0.014384 117.269 0.29836 115.382 0.84343 113.562C1.99664 110.317 3.91214 108.609 5.91316 106.825C7.28185 105.605 8.69056 104.349 9.9227 102.541C12.7577 98.3594 12.8711 93.88 12.9491 90.5346C13.1616 81.4218 7.09069 74.5523 3.50481 70.4947C3.02438 69.9511 2.58856 69.4579 2.21843 69.0166C1.2398 68.0727 0.58837 66.8408 0.35916 65.5006C0.129951 64.1605 0.334957 62.7821 0.94427 61.5667C1.55359 60.3512 2.53533 59.3622 3.74629 58.744C4.95725 58.1258 6.33407 57.9106 7.67589 58.13C10.5818 58.6049 36.6005 62.2054 54.6526 43.5083C61.4718 36.3038 66.041 27.2664 67.8002 17.5038L63.8949 20.7995C63.4027 21.2583 62.8224 21.6122 62.1892 21.8397C61.556 22.0672 60.8831 22.1635 60.2115 22.1228C59.5399 22.0821 58.8836 21.9051 58.2825 21.6028C57.6814 21.3005 57.1481 20.879 56.715 20.3641C56.2819 19.8492 55.958 19.2516 55.7631 18.6076C55.5682 17.9636 55.5064 17.2867 55.5813 16.618C55.6562 15.9494 55.8664 15.3029 56.199 14.718C56.5316 14.1332 56.9797 13.622 57.516 13.2158L71.8259 1.1668C72.8318 0.319516 74.133 -0.093719 75.4434 0.0179196C76.7538 0.129558 77.9663 0.756935 78.8143 1.76216C78.9472 1.91566 79.068 2.07916 79.1758 2.25121L90.9342 16.1784C91.7815 17.1843 92.1947 18.4854 92.0831 19.7958C91.9714 21.1062 91.344 22.3187 90.3388 23.1668Z" fill="#41B47D"/>
<path d="M90.3388 23.1668C89.3338 24.0149 88.0332 24.4293 86.7229 24.319C85.4125 24.2087 84.1995 23.5827 83.3504 22.5785L80.4587 19.1552C78.864 28.0998 74.6893 41.1268 63.8311 52.3678C57.683 58.7367 48.1484 63.0643 41.4081 66.1235C39.4924 66.9931 37.8024 67.7601 36.48 68.4425C35.6933 68.821 34.9435 69.2719 34.2403 69.7892C31.0509 72.3123 26.8125 78.1596 25.643 85.8355C25.4153 87.3008 25.311 88.7826 25.3312 90.2653C25.3737 93.8729 25.4375 98.5507 28.3859 102.853C29.5115 104.493 30.7832 105.678 32.0248 106.836C33.9495 108.63 35.802 110.357 36.9265 113.605C37.459 115.412 37.7404 117.284 37.7628 119.169C37.7628 124.176 35.7736 128.979 32.2326 132.52C28.6916 136.061 23.8891 138.05 18.8814 138.05C13.8738 138.05 9.07119 136.061 5.53024 132.52C1.98929 128.979 0 124.176 0 119.169C0.014384 117.269 0.29836 115.382 0.84343 113.562C1.99664 110.317 3.91214 108.609 5.91316 106.825C7.28185 105.605 8.69056 104.349 9.9227 102.541C12.7577 98.3594 12.8711 93.88 12.9491 90.5346C13.1616 81.4218 7.09069 74.5523 3.50481 70.4947C3.02438 69.9511 2.58856 69.4579 2.21843 69.0166C1.2398 68.0727 0.58837 66.8408 0.35916 65.5006C0.129951 64.1605 0.334957 62.7821 0.94427 61.5667C1.55359 60.3512 2.53533 59.3622 3.74629 58.744C4.95725 58.1258 6.33407 57.9106 7.67589 58.13C10.5818 58.6049 36.6005 62.2054 54.6526 43.5083C61.4718 36.3038 66.041 27.2664 67.8002 17.5038L63.8949 20.7995C63.4027 21.2583 62.8224 21.6122 62.1892 21.8397C61.556 22.0672 60.8831 22.1635 60.2115 22.1228C59.5399 22.0821 58.8836 21.9051 58.2825 21.6028C57.6814 21.3005 57.1481 20.879 56.715 20.3641C56.2819 19.8492 55.958 19.2516 55.7631 18.6076C55.5682 17.9636 55.5064 17.2867 55.5813 16.618C55.6562 15.9494 55.8664 15.3029 56.199 14.718C56.5316 14.1332 56.9797 13.622 57.516 13.2158L71.8259 1.1668C72.8318 0.319516 74.133 -0.093719 75.4434 0.0179196C76.7538 0.129558 77.9663 0.756935 78.8143 1.76216C78.9472 1.91566 79.068 2.07916 79.1758 2.25121L90.9342 16.1784C91.7815 17.1843 92.1947 18.4854 92.0831 19.7958C91.9714 21.1062 91.344 22.3187 90.3388 23.1668Z" stroke="black"/>
<path d="M86.6333 132.543C83.0925 136.083 78.2906 138.072 73.2838 138.072C68.2769 138.072 63.4751 136.083 59.9342 132.543C58.6682 131.228 57.5728 129.759 56.6739 128.17C55.2735 125.555 54.9665 123.408 54.6657 121.305C54.5874 120.758 54.5096 120.214 54.413 119.665C53.4987 114.477 51.2448 110.919 48.0341 105.851C45.8304 102.376 43.2516 99.1526 40.3441 96.2403C36.0484 91.9864 31.0852 88.4645 25.6514 85.8144C26.8209 78.1385 31.0593 72.2912 34.2487 69.768C34.9519 69.2507 35.7017 68.7999 36.4884 68.4214C39.838 75.2043 44.3067 81.3742 49.7068 86.672C52.417 89.3444 55.3927 91.7335 58.5876 93.8022C62.8402 96.5025 67.2487 99.288 73.3865 100.287C74.001 100.388 74.6025 100.466 75.202 100.544C77.3684 100.824 79.5083 101.101 82.1397 102.477C83.7754 103.395 85.2878 104.517 86.6404 105.816C88.3978 107.569 89.792 109.653 90.743 111.946C91.694 114.24 92.1832 116.698 92.1826 119.181C92.1819 121.664 91.6914 124.122 90.7392 126.415C89.7869 128.708 88.3917 130.79 86.6333 132.543Z" fill="#C8E56E"/>
<path d="M86.6333 132.543C83.0925 136.083 78.2906 138.072 73.2838 138.072C68.2769 138.072 63.4751 136.083 59.9342 132.543C58.6682 131.228 57.5728 129.759 56.6739 128.17C55.2735 125.555 54.9665 123.408 54.6657 121.305C54.5874 120.758 54.5096 120.214 54.413 119.665C53.4987 114.477 51.2448 110.919 48.0341 105.851C45.8304 102.376 43.2516 99.1526 40.3441 96.2403C36.0484 91.9864 31.0852 88.4645 25.6514 85.8144C26.8209 78.1385 31.0593 72.2912 34.2487 69.768C34.9519 69.2507 35.7017 68.7999 36.4884 68.4214C39.838 75.2043 44.3067 81.3742 49.7068 86.672C52.417 89.3444 55.3927 91.7335 58.5876 93.8022C62.8402 96.5025 67.2487 99.288 73.3865 100.287C74.001 100.388 74.6025 100.466 75.202 100.544C77.3684 100.824 79.5083 101.101 82.1397 102.477C83.7754 103.395 85.2878 104.517 86.6404 105.816C88.3978 107.569 89.792 109.653 90.743 111.946C91.694 114.24 92.1832 116.698 92.1826 119.181C92.1819 121.664 91.6914 124.122 90.7392 126.415C89.7869 128.708 88.3917 130.79 86.6333 132.543Z" stroke="black"/>
</svg>
