<svg width="154" height="154" viewBox="0 0 154 154" fill="none" xmlns="http://www.w3.org/2000/svg">
<g clip-path="url(#clip0_35_12)">
<path d="M54.208 131.208L77 154L99.792 131.208H131.824V99.176L154.616 76.384L131.824 53.592V22.176H99.792L77 0L70.84 6.16L59.136 17.864L54.208 22.176H22.792V54.208L0 77L17.864 94.864L22.792 99.792V131.824H54.208V131.208Z" fill="#F9AB00"/>
<path d="M121.352 76.9999C121.352 101.64 101.64 121.352 76.9999 121.352C52.3599 121.352 32.6479 101.64 32.6479 76.9999C32.6479 52.3599 52.3599 32.6479 76.9999 32.6479C101.64 32.6479 121.352 52.3599 121.352 76.9999Z" fill="#E37400"/>
<path d="M68.9922 95.48L80.0802 54.824L86.2402 56.672L75.1522 97.328L68.9922 95.48Z" fill="white"/>
<path d="M61.6001 61.6L66.5281 65.912L57.2881 76.384L66.5281 86.856L61.6001 90.552L48.6641 76.384C48.6641 75.768 61.6001 61.6 61.6001 61.6ZM92.4001 61.6L105.336 75.768L92.4001 89.936L88.0881 86.24L97.3281 75.768L88.0881 65.296L92.4001 61.6Z" fill="white"/>
</g>
<defs>
<clipPath id="clip0_35_12">
<rect width="154" height="154" fill="white"/>
</clipPath>
</defs>
</svg>
